<svg xmlns="http://www.w3.org/2000/svg" width="402" height="137.223" viewBox="0 0 402 137.223"><g fill-rule="evenodd" clip-rule="evenodd"><path fill="#155E5C" d="M332.98 74.34c-.685-2.91-1.373-5.82-2.04-8.735-.068-.308-.19-.377-.48-.375-1.58.013-3.16.013-4.74 0-.304-.003-.413.06-.41.392.01 4.743.01 9.483-.003 14.227 0 .358.122.416.44.408.79-.02 1.583-.026 2.373.002.374.014.48-.088.477-.474-.015-3.807-.01-7.613-.01-11.42 0-.205 0-.41.04-.62.235.863.42 1.73.634 2.592.23.938.508 1.868.73 2.81.173.743.284 1.503.466 2.245.174.707.45 1.393.592 2.106.167.85.53 1.657.56 2.537.008.255.206.208.353.21.645.008 1.29-.005 1.936.01.227.005.292-.09.348-.294.527-1.938 1.068-3.87 1.607-5.805.578-2.077 1.157-4.152 1.832-6.224v.526c0 3.774.007 7.55-.01 11.322 0 .376.09.493.474.48.773-.033 1.55-.022 2.323-.005.276.006.347-.082.346-.353-.007-4.774-.007-9.55 0-14.322 0-.274-.073-.354-.35-.352-1.58.012-3.162.006-4.743.004-.28 0-.42.064-.43.413-.015.618-.35 1.17-.49 1.767-.198.822-.33 1.665-.593 2.466-.276.843-.477 1.704-.695 2.56-.162.627-.254 1.274-.536 1.9zM195.16 67.705c.127.49.315.973.37 1.47.12 1.102.563 2.115.796 3.185.124.57.15 1.177.344 1.71.35.967.575 1.962.77 2.956.193.968.573 1.88.72 2.854.046.313.187.387.48.376.562-.02 1.128-.023 1.692.002.257.01.372-.088.434-.316.908-3.294 1.817-6.588 2.73-9.88.193-.703.398-1.405.687-2.094v.552c0 3.743.007 7.484-.01 11.228 0 .383.072.533.493.513.772-.036 1.55-.02 2.322-.003.267.004.363-.065.362-.35-.01-4.776-.01-9.55-.003-14.324 0-.283-.09-.354-.36-.353-1.564.01-3.13.013-4.695 0-.287-.004-.38.108-.446.368-.527 2.07-1.07 4.14-1.605 6.21-.217.838-.433 1.678-.738 2.528-.15-.614-.302-1.23-.446-1.846-.53-2.27-1.063-4.54-1.577-6.813-.078-.344-.213-.457-.572-.452-1.55.022-3.098.02-4.646.002-.344-.004-.425.1-.424.432.01 4.726.01 9.45 0 14.178-.002.352.108.43.436.42.79-.022 1.582-.03 2.37 0 .37.016.45-.1.45-.454-.014-3.855-.008-7.71-.008-11.565v-.52c.024-.006.05-.01.074-.015z"/><path fill="#FFF" d="M350.922 79.012c.022.134.033.164.035.197.02 1.025.02 1.025 1.07 1.025.958 0 .958 0 .958-.947 0-2.29-.012-4.58.005-6.868.007-.998-.204-1.958-.855-2.687-.534-.598-1.304-.948-2.13-1.11-1.688-.326-3.367-.266-5.04.064-.325.064-.652.046-.982.126-.342.083-.41.242-.346.49.11.41.092.82.08 1.232-.01.325.09.393.392.282 1.016-.375 2.067-.602 3.146-.688.712-.06 1.42-.006 2.113.152 1.02.23 1.59.97 1.594 1.99 0 .24-.055.337-.316.343-1.092.025-2.178.18-3.274.194-.82.012-1.586.346-2.348.643-1.595.62-2.323 1.82-2.396 3.5-.095 2.13 2.008 3.462 3.466 3.578 1.266.103 2.474-.16 3.604-.68.413-.19.79-.514 1.222-.838zm.036-3.205c0 .437-.007.87.003 1.304.004.178-.042.3-.192.408-1.276.913-2.664 1.41-4.257 1.175-1.504-.222-2.264-1.768-1.457-3 .39-.598 1.007-.886 1.674-1.06 1.3-.338 2.644-.328 3.97-.458.238-.023.267.092.264.28-.008.45-.002.9-.002 1.352zM251.776 79.063c.115.407-.157.917.148 1.127.254.174.72.045 1.09.045.826 0 .826 0 .826-.84 0-2.37.01-4.742-.007-7.112-.007-.772-.138-1.525-.605-2.19-.708-1.002-1.737-1.39-2.88-1.557-1.366-.2-2.73-.162-4.094.07-.478.083-.975.02-1.44.226-.158.07-.232.088-.226.273.02.483.024.97.01 1.452-.008.31.097.355.372.254 1.022-.377 2.082-.6 3.166-.68.775-.06 1.546-.013 2.296.215.913.28 1.426 1.027 1.384 1.973-.008.194-.04.288-.264.293-1.092.027-2.197.075-3.27.22-1.6.218-3.207.617-4.284 1.998-.52.668-.555 1.488-.477 2.304.187 1.958 1.725 3.347 3.704 3.416 1.206.04 2.327-.256 3.41-.722.402-.173.686-.57 1.142-.763zm.037-3.318c0 .45-.003.9 0 1.352.002.164-.008.294-.17.41-1.275.92-2.662 1.41-4.254 1.188-1.35-.19-2.052-1.25-1.676-2.55.263-.903 1.01-1.266 1.81-1.493 1.326-.373 2.706-.347 4.065-.48.22-.02.225.115.224.27-.003.433 0 .87 0 1.303zM383.362 79.063c.023.08.043.12.048.162.026.317-.14.74.065.93.242.225.675.07 1.024.075.938.012.938.005.938-.957v-6.82c0-2.3-1.173-3.62-3.46-3.92-1.548-.204-3.087-.157-4.61.173-.306.066-.63-.078-.925.146-.146.11-.226.183-.22.366.013.402.025.807-.002 1.21-.024.39.053.503.47.354.972-.348 1.978-.57 3.01-.652.73-.058 1.453-.008 2.162.155.982.225 1.516.914 1.555 1.888.014.32-.06.43-.406.45-1.285.08-2.573.135-3.846.36-.666.12-1.316.295-1.933.582-1.435.67-2.133 1.787-2.09 3.382.043 1.6.842 2.69 2.272 3.28 1.445.595 2.89.337 4.313-.207.598-.226 1.065-.655 1.637-.957zm.05-3.256c0 .437-.004.87.002 1.306.002.17-.02.3-.18.413-1.28.907-2.672 1.403-4.267 1.166-.896-.134-1.504-.64-1.668-1.39-.212-.974.07-1.698.865-2.224.284-.188.596-.328.92-.416 1.35-.366 2.744-.354 4.12-.49.25-.026.202.146.204.28.005.45.002.902.002 1.355zM321 79.047c.026.096.047.137.05.18.05 1.01.05 1.01 1.094 1.01.935 0 .935 0 .935-.92 0-2.24-.002-4.483 0-6.725 0-2.418-1.072-3.684-3.46-4.055-1.842-.285-3.66-.067-5.47.307-.217.045-.325.15-.314.396.02.436.023.872.004 1.307-.014.354.123.352.403.255.978-.332 1.977-.564 3.01-.667.87-.085 1.718.03 2.55.255.792.213 1.37 1.207 1.256 2.02-.038.27-.217.187-.355.198-1.315.112-2.64.144-3.942.385-1.02.188-2.01.466-2.826 1.153-1.16.977-1.413 2.246-1.063 3.647.362 1.45 1.367 2.326 2.794 2.632 1.602.342 3.123.028 4.52-.848.262-.168.524-.343.812-.53zm.052-3.245c0 .435-.003.868 0 1.305.003.166-.017.3-.176.41-1.268.89-2.633 1.397-4.212 1.182-1.388-.19-2.127-1.288-1.702-2.608.266-.822.958-1.188 1.716-1.413 1.355-.4 2.77-.37 4.16-.507.232-.022.213.13.213.276 0 .45 0 .9.002 1.352zM215.722 74.645c1.355 0 2.71-.007 4.066.007.287.003.388-.06.384-.372-.014-.948-.02-1.886-.307-2.814-.502-1.627-2.002-2.892-3.712-3.008-.358-.024-.685-.22-1.022-.188-1.98.182-3.81.71-4.964 2.507-1.314 2.04-1.326 4.238-.516 6.428.694 1.878 2.25 2.79 4.15 3.137 1.655.3 3.293.195 4.882-.393.347-.13.746-.05 1.063-.356.13-.126.198-.208.198-.37-.002-.5-.01-1 .002-1.5.01-.312-.08-.324-.325-.168-1.373.868-2.87 1.323-4.5 1.235-1.59-.087-2.87-.722-3.547-2.252-.21-.474-.322-.987-.342-1.52-.01-.302.076-.383.376-.38 1.373.015 2.745.007 4.116.007zm-1.027-1.47c-1.014 0-2.03-.02-3.043.01-.415.012-.452-.144-.365-.477.388-1.483 1.31-2.444 2.83-2.675 2.187-.33 3.84.415 4.056 2.747.034.357-.084.403-.383.4-1.032-.013-2.062-.004-3.095-.004zM268.354 74.34c-.083.893.017 1.953.407 2.883.68 1.608 1.852 2.796 3.657 3.156 1.913.38 3.726.2 5.267-1.132 1.037-.896 1.553-2.075 1.742-3.42.204-1.442.18-2.862-.39-4.222-.782-1.87-2.21-2.862-4.207-3.208-1.09-.188-2.116.002-3.09.296-.868.262-1.594.912-2.196 1.654-.916 1.133-1.18 2.446-1.19 3.992zm9.092-.19c.017.678-.025 1.354-.18 2.014-.397 1.71-1.57 2.693-3.224 2.72-1.75.03-2.958-.884-3.388-2.628-.326-1.32-.316-2.657.093-3.96.467-1.49 1.613-2.272 3.22-2.26 1.59.015 2.698.804 3.18 2.26.2.6.26 1.225.3 1.854zM258.026 69.947c0-.188.002-.278 0-.37-.012-.887-.012-.887-.92-.887-1.116 0-1.116 0-1.116 1.135 0 3.307.007 6.614-.01 9.922-.002.407.116.532.512.495.368-.034.744-.03 1.113 0 .342.027.43-.088.428-.427-.016-2-.008-4-.008-6 0-.484.052-.977-.014-1.45-.084-.617.202-.933.696-1.213.807-.457 1.635-.862 2.56-.95.693-.068 1.405.063 2 .464.55.37.7.983.75 1.606.21 2.464.065 4.934.086 7.4.003.468.113.63.58.567.476-.06 1.114.2 1.39-.103.235-.26.078-.886.08-1.35.003-1.97-.002-3.938 0-5.906.002-.71-.063-1.41-.287-2.088-.41-1.232-1.245-1.997-2.512-2.297-.715-.17-1.46-.312-2.155-.12-.9.247-1.793.585-2.565 1.153-.167.125-.342.237-.607.42z"/><path fill="#FFF" d="M372.42 70.298c-.8.965-1.526 1.84-2.255 2.716-1.534 1.842-3.067 3.686-4.607 5.524-.407.488-.18 1.05-.19 1.578-.004.204.267.114.408.114 2.293.006 4.584.005 6.874.005.727 0 1.453-.01 2.178.005.253.005.325-.073.336-.328.05-1.316.06-1.315-1.227-1.315h-5.958c-.05-.21.118-.297.212-.41 2.168-2.6 4.332-5.206 6.518-7.79.42-.5.212-1.043.242-1.567.012-.206-.22-.135-.35-.135-1.098-.006-2.193-.004-3.29-.004-1.792 0-3.583.012-5.375-.008-.363-.004-.46.094-.453.456.018 1.16 0 1.16 1.142 1.16h5.794zM361.857 70.298c-.747.9-1.412 1.704-2.08 2.507-1.56 1.868-3.103 3.75-4.69 5.595-.463.54-.272 1.123-.295 1.696-.01.214.222.135.35.136 1.08.006 2.16.004 3.24.004 1.937 0 3.872-.006 5.808.005.3.003.42-.053.42-.39.004-1.253.018-1.253-1.246-1.253h-5.95c-.04-.216.126-.3.22-.414 2.157-2.59 4.308-5.183 6.486-7.754.432-.51.254-1.06.273-1.603.005-.196-.225-.133-.355-.134-1-.005-2-.003-3-.003-1.872 0-3.743.012-5.614-.012-.414-.006-.507.116-.498.51.025 1.11.008 1.11 1.143 1.11h5.787zM231.57 71.508c0-.607-.02-1.19.008-1.768.016-.3-.117-.423-.367-.53-1.344-.583-2.74-.853-4.208-.776-1.533.077-2.774.713-3.86 1.78-.836.825-1.275 1.833-1.395 2.93-.117 1.094-.083 2.214.18 3.31.317 1.343 1.06 2.407 2.17 3.16.74.497 1.632.72 2.533.818 1.626.178 3.168-.12 4.648-.794.193-.088.31-.182.298-.425-.02-.5-.014-1-.002-1.5.007-.322-.08-.37-.348-.183-.826.574-1.715 1.004-2.72 1.19-2.65.484-4.503-.957-4.66-3.653-.043-.725-.026-1.448.15-2.16.492-1.985 2.095-3.066 4.12-2.787 1.09.15 2.073.565 2.986 1.167.128.084.235.22.47.22zM312.036 71.602c0-.734-.01-1.36.007-1.985.006-.235-.142-.3-.305-.375-1.114-.517-2.284-.78-3.514-.823-.947-.036-1.892.065-2.74.44-.825.364-1.56.93-2.14 1.668-.73.93-1.07 1.956-1.19 3.14-.074.712-.065 1.416.053 2.074.18 1.012.522 2.008 1.216 2.835.687.818 1.546 1.364 2.563 1.635 2.012.535 3.952.265 5.824-.606.148-.07.233-.145.23-.318-.007-.625-.002-1.25-.002-1.97-.583.37-1.094.697-1.64.956-1.59.752-4.26.964-5.46-1.04-.69-1.157-.736-2.428-.59-3.722.115-1.003.445-1.917 1.25-2.585 1.03-.857 2.218-1 3.49-.714.874.198 1.678.553 2.422 1.043.146.093.29.188.526.346zM242.483 77.306c-.585.39-1.08.715-1.62.96-.975.45-1.996.652-3.057.5-1.753-.257-2.854-1.512-3.02-3.434-.073-.828-.078-1.662.126-2.48.555-2.226 2.46-3.133 4.594-2.644.544.123 1.065.283 1.558.65.326.24.82.355 1.21.6.212.133.204-.044.204-.167.006-.595-.01-1.19.01-1.787.005-.184-.115-.22-.215-.26-.598-.244-1.21-.444-1.836-.607-1.267-.33-2.535-.294-3.784.023-2.307.586-3.883 2.622-4.01 5.082-.054 1.08-.065 2.186.303 3.188.63 1.718 1.844 2.897 3.69 3.328 1.94.452 3.796.206 5.584-.648.244-.118.31-.243.278-.54-.06-.55-.015-1.115-.015-1.764zM283.24 73.76c0-.97.02-1.936-.01-2.902-.013-.426.077-.588.547-.57 1.08.038 2.16-.007 3.24.02.376.01.447-.107.443-.457-.017-1.16-.002-1.16-1.137-1.16-.904 0-1.81-.01-2.71.007-.304.006-.384-.096-.38-.387.018-.854.006-1.71.006-2.564-.002-.31.017-.566-.467-.413-.322.102-.732.104-1.05-.005-.512-.175-.543.047-.537.44.01.838-.01 1.678.01 2.516.007.312-.08.453-.406.41-.143-.018-.292.018-.434-.007-.492-.083-.655.17-.646.608.025 1.23-.2.994.964.992.433-.002.526.116.527.535.007 2.145-.084 4.29.05 6.433.096 1.548.837 2.56 2.18 2.986.827.266 1.678.264 2.53.14.047-.008.094-.038.14-.035.453.023 1.02.016 1.27-.257.267-.287.068-.86.08-1.31.01-.36-.214-.507-.535-.33-.77.418-1.58.368-2.386.21-.713-.14-1.22-.853-1.24-1.706-.024-1.064-.006-2.128-.006-3.192h-.044zM289.583 74.247c0 1.192-.062 2.39.028 3.573.04.504.338 1.007.67 1.444.618.82 1.508 1.065 2.456 1.163.906.095 1.8-.05 2.69-.203.287-.05.403-.183.372-.482-.027-.27-.005-.548-.006-.823-.002-.582-.042-.632-.587-.44-.64.223-1.276.278-1.956.258-.98-.03-1.615-1.002-1.627-1.755-.034-2.128-.02-4.256-.04-6.384 0-.283.13-.307.355-.306 1.145.01 2.29-.008 3.435.013.332.007.433-.076.43-.422-.014-1.194.003-1.194-1.2-1.194-.87 0-1.74-.014-2.612.008-.313.007-.416-.078-.408-.4.022-.854-.003-1.708.015-2.563.005-.295-.084-.406-.384-.382-.54.042-1.234-.22-1.577.108-.3.288-.07.98-.083 1.495-.01.467-.014.936.002 1.402.01.253-.08.365-.333.337-.015-.002-.032-.002-.047 0-.334.024-.863-.147-.96.083-.16.386-.056.882-.063 1.333-.003.21.158.155.274.163 1.124.078 1.124.078 1.124 1.22v2.756c.012-.003.022-.003.033-.003zM299.656 74.443c0-1.758-.015-3.516.012-5.27.007-.422-.124-.524-.512-.49-.384.034-.774.023-1.16 0-.295-.018-.39.076-.383.38.02.82.007 1.643.007 2.466 0 2.724.013 5.448-.012 8.174-.005.467.146.578.568.54.352-.034.712-.034 1.063-.003.348.032.426-.094.424-.428-.017-1.79-.007-3.58-.008-5.37zM390.557 78.908c-.4.99.197 1.16.875 1.314.755.178 1.504.185 2.223-.086.684-.258 1.103-.772 1.095-1.534-.01-.75-.456-1.178-1.15-1.363-.49-.13-.994-.214-1.483-.35-.348-.098-.67-.28-.67-.702.002-.455.326-.62.718-.735.827-.242 1.516.15 2.23.446.396-.807.37-.807-.507-1.07-.914-.275-1.768-.247-2.655.146-.693.31-.98.938-.926 1.5.055.593.53 1.124 1.278 1.226.53.076 1.048.233 1.57.354.41.096.69.307.64.778-.053.457-.377.628-.772.692-.894.145-1.695-.125-2.466-.618zM298.61 64.738c-1.108 0-1.108 0-1.108 1.084 0 .936 0 .943.928.935.432-.005.988.18 1.26-.077.277-.263.078-.826.088-1.256.015-.686.004-.687-.683-.687h-.485zM396.877 75.457c-.112-.385-.063-.785-.61-.73-.558.058-.37.44-.374.712-.018 1.395-.008 2.788-.008 4.184 0 .29-.072.58.414.582.483.004.5-.245.495-.604-.017-.724-.007-1.45-.007-2.174 0-1.352.442-1.772 1.824-1.784.22 0 .576.242.654-.19.067-.357.062-.703-.47-.713-.705-.01-1.298.277-1.92.717zM400.9 76.38c0-1.074-.004-2.147 0-3.22 0-.302.045-.575-.43-.578-.45-.002-.527.178-.524.572.014 2.176.012 4.347 0 6.52-.003.358.067.53.48.532.41.004.483-.165.478-.525-.015-1.097-.005-2.2-.005-3.3z"/></g><path fill="#9CFFFE" d="M.002 88.108c2.866.504 6.48 1.37 9.352 1.85 2.6.435 5.334.9 7.99 1.34-.057-.978-.136-1.908-.16-2.844-.133-5.14-.064-10.3.504-15.412.465-4.188 1.123-8.34 1.988-12.46 1.484-7.056 3.514-13.952 6.12-20.67.805-2.075.247-1.743 2.528-1.44.972.128.983.178.835 1.165-.352 2.336-.53 4.69-.615 7.047-.254 7.088.054 14.147 1.178 21.165 1.528 9.545 4.367 18.633 9.006 27.114.27.497.604.73 1.126.842 5.96 1.257 11.967 2.27 17.95 3.4.418.078 1.407-.138 1.32-.58-.966-4.976-1.728-9.803-.63-14.732 1.635-7.34 5.213-13.61 10.305-19.025 4.06-4.318 8.775-7.763 13.904-10.645.47-.265.837-.586 1.115-1.058.888-1.516 1.81-3.012 2.708-4.522.602-1.013.593-1.018 1.763-.816.068.01.134.032.2.042.84.138.62.102.22.89-.463.91-.82 1.86-.958 2.958.182-.063.448-.08.548-.125 5.66-2.543 11.554-4.293 17.647-5.362 2.737-.48 5.49-.82 8.266-1 3.18-.21 6.36-.415 9.527.146.523.09.798-.04 1.07-.526 4.357-7.79 9.183-15.248 15.155-21.89.747-.83.73-.83-.145-1.535-4.334-3.5-9.076-6.326-14.07-8.732-7.594-3.66-15.525-6.313-23.72-8.18-.585-.133-1.125-.12-1.705.118-4.754 1.938-9.06 4.643-13.097 7.81-5.404 4.237-10.204 9.113-14.678 14.332-5.898 6.88-11.15 13.734-15.85 21.505-.58.96-.57.958-1.63.625-.107-.034-.212-.074-.32-.11-.377-.125 0 0-.443-.277.41-2.828.802-5.66 1.154-8.495.374-3.02.75-6.042 1.027-9.072.35-3.807.646-7.62.872-11.438.36-6.114.555-12.23.53-18.354-.002-.567-.175-.687-.688-.654-2.39.155-4.78.282-7.172.413-3.723.205-7.446.396-11.168.603-3.723.208-7.444.43-11.167.638-2.82.158-5.64.306-8.46.452-.58.03-1.085.17-1.527.603-.614.606-1.303 1.135-1.934 1.724C9.28 11.007 4.107 18.045.617 26.31c-.146.345-.213.732-.617 1.178l.002 60.62z"/><g fill-rule="evenodd" clip-rule="evenodd" fill="#155E5C"><path d="M68.245 117.303c.993 1.117 1.987 1.99 2.998 2.84 6.85 5.772 14.573 10 23.026 12.92 5.16 1.786 10.46 2.972 15.88 3.623 3.91.47 7.84.602 11.777.51 6.476-.153 12.886-.806 19.235-2.137 7.08-1.484 13.388-4.692 19.463-8.446 4.875-3.01 9.386-6.496 12.875-11.087 3.27-4.304 6.235-8.81 7.626-14.15 1.08-4.14 1.553-8.343 1.262-12.605-.787-11.542-6.085-20.814-14.562-28.415-5.814-5.21-12.576-8.75-20.05-10.95-.508-.15-.587-.392-.586-.852.01-15.87.01-31.74.007-47.608 0-1.082.154-.93-.934-.93C97.783.014 49.305.016.826 0 .186 0 0 .15 0 .812.024 9.22.015 17.63.015 26.04v1.265c.404-.44.47-.82.617-1.16 3.49-8.147 8.663-15.083 15.156-21.067.63-.58 1.32-1.1 1.934-1.7.442-.426.947-.563 1.527-.593 2.82-.144 5.64-.29 8.46-.444 3.722-.204 7.443-.423 11.166-.628 3.722-.204 7.446-.394 11.168-.595 2.39-.13 4.783-.255 7.172-.408.514-.034.687.085.688.645.024 6.036-.17 12.064-.53 18.09-.228 3.763-.522 7.52-.873 11.273-.278 2.986-.652 5.964-1.025 8.94-.352 2.796-.745 5.586-1.154 8.375-.062.432.052.64.43.766.107.034.212.075.32.108 1.058.328 1.05.32 1.63-.625 4.698-7.66 9.966-14.898 15.864-21.678 4.475-5.144 9.274-9.95 14.678-14.126 4.038-3.122 8.343-5.79 13.097-7.698.58-.233 1.12-.248 1.703-.116 8.196 1.84 16.127 4.453 23.72 8.06 4.995 2.373 9.737 5.156 14.07 8.606.876.696.893.696.146 1.514-5.974 6.545-10.8 13.896-15.157 21.573-.27.477-.545.607-1.07.516-3.166-.552-6.345-.35-9.526-.145-2.775.18-5.528.516-8.266.988-6.092 1.053-11.987 2.778-17.646 5.285-.1.044-.206.072-.387.134.138-1.08.548-1.997 1.01-2.894.4-.776.407-.773-.432-.91-.067-.01-.133-.03-.2-.042-1.17-.198-1.16-.193-1.763.805-.898 1.488-1.82 2.963-2.71 4.457-.276.466-.643.783-1.114 1.043-5.13 2.84-9.844 6.236-13.903 10.49-5.092 5.337-8.67 11.518-10.305 18.753-1.098 4.857-1.26 9.745-.294 14.647.086.438.023.52-.396.442-5.983-1.113-11.99-2.112-17.95-3.35-.52-.11-.855-.34-1.127-.83-4.64-8.358-7.478-17.316-9.006-26.724-1.124-6.916-1.433-13.874-1.178-20.86.083-2.322.262-4.643.613-6.945.148-.973.137-1.022-.835-1.15-2.28-.296-1.723-.624-2.53 1.423-2.603 6.62-4.634 13.418-6.118 20.373-.865 4.06-1.522 8.153-1.988 12.28-.568 5.04-.772 10.09-.64 15.153.025.922.104 1.84.16 2.803-2.654-.435-5.254-.855-7.854-1.285-2.87-.472-5.743-.935-8.61-1.43-.6-.107-.758.04-.756.663.022 7.234.023 14.468 0 21.7-.002.605.152.74.747.74 22.09-.017 44.182-.015 66.274-.022.25 0 .61.156.732-.122.11-.243-.16-.49-.304-.716-2.82-4.367-4.708-9.095-5.427-14.25-.88-6.328.013-12.43 2.602-18.267C67.2 71.365 71.062 66.52 75.87 62.42c7.662-6.53 16.56-10.547 26.314-12.755 7.757-1.756 15.6-2.195 23.517-1.4 9.283.93 18.075 3.464 26.232 8.037 6.985 3.916 12.92 9.008 17.296 15.79 3.024 4.684 4.94 9.787 5.49 15.347.797 8.012-1.167 15.37-5.498 22.112-7.195 11.205-17.408 18.252-30.17 21.736-7.88 2.153-15.91 2.767-24.047 2.21-6.75-.46-13.316-1.776-19.754-3.862-7.8-2.526-14.708-6.53-20.738-12.067-.173-.157-.342-.27-.592-.27-1.832.008-3.663.006-5.675.006z"/><path d="M131.848 77.313c0-8.204-.007-16.41.014-24.613.002-.707-.15-.98-.926-1.1-6.984-1.054-13.984-1.347-21.02-.636-3.49.353-6.93.956-10.31 1.916-.64.182-.884.422-.884 1.134.024 16.025.024 32.048.004 48.073 0 .625.184.732.758.73 10.535-.017 21.07-.018 31.605.002.605 0 .748-.166.747-.758-.02-8.25-.014-16.5-.014-24.75h.025zM95.065 54.1C85.012 58.217 76.13 63.84 69.82 72.912c-1.15 1.653-2.12 3.41-2.928 5.258-2.27 5.2-2.727 10.635-2.1 16.205.31 2.75.983 5.41 2.042 7.975.186.453.423.588.9.584 3.594-.02 7.19-.02 10.784.002.47.004.666-.14.81-.577 3.99-12.13 7.992-24.25 11.988-36.374 1.49-4.525 2.7-8.234 3.642-11.123.07-.21.202-.41.107-.763z"/></g><text transform="translate(192.665 100.205)" fill="#FFF" font-family="'CenturyGothic-Bold'" font-size="15.046" letter-spacing="4">ambienti oftalmici</text></svg>