<?xml version="1.0" encoding="utf-8"?>
<!-- Generator: Adobe Illustrator 16.0.0, SVG Export Plug-In . SVG Version: 6.00 Build 0)  -->
<!DOCTYPE svg PUBLIC "-//W3C//DTD SVG 1.1//EN" "http://www.w3.org/Graphics/SVG/1.1/DTD/svg11.dtd">
<svg version="1.1" id="Livello_1" xmlns="http://www.w3.org/2000/svg" xmlns:xlink="http://www.w3.org/1999/xlink" x="0px" y="0px"
	 width="402px" height="137.223px" viewBox="0 0 402 137.223" enable-background="new 0 0 402 137.223" xml:space="preserve">
<g>
	<path fill-rule="evenodd" clip-rule="evenodd" fill="#155E5C" d="M332.979,74.341c-0.684-2.911-1.372-5.821-2.039-8.736
		c-0.068-0.308-0.189-0.377-0.479-0.375c-1.58,0.013-3.161,0.013-4.742,0c-0.303-0.003-0.412,0.059-0.41,0.392
		c0.011,4.743,0.012,9.483-0.002,14.227c0,0.359,0.122,0.417,0.441,0.409c0.789-0.021,1.582-0.026,2.372,0.002
		c0.374,0.014,0.479-0.088,0.477-0.474c-0.015-3.807-0.009-7.613-0.009-11.42c0-0.205,0-0.409,0.038-0.619
		c0.236,0.862,0.422,1.73,0.635,2.591c0.228,0.938,0.507,1.868,0.728,2.811c0.174,0.742,0.285,1.502,0.467,2.244
		c0.174,0.707,0.451,1.393,0.592,2.106c0.167,0.851,0.53,1.658,0.559,2.538c0.009,0.255,0.207,0.208,0.354,0.211
		c0.644,0.007,1.29-0.006,1.935,0.008c0.227,0.006,0.292-0.09,0.348-0.293c0.527-1.938,1.068-3.871,1.607-5.805
		c0.577-2.077,1.156-4.152,1.831-6.224c0,0.174,0,0.351,0,0.526c0,3.774,0.007,7.549-0.009,11.322
		c-0.002,0.376,0.088,0.493,0.473,0.479c0.773-0.032,1.549-0.021,2.323-0.004c0.277,0.006,0.348-0.082,0.347-0.353
		c-0.007-4.774-0.007-9.549,0-14.322c0.001-0.274-0.073-0.354-0.351-0.352c-1.58,0.012-3.161,0.006-4.742,0.004
		c-0.281,0-0.419,0.064-0.429,0.413c-0.016,0.618-0.35,1.17-0.492,1.767c-0.197,0.822-0.328,1.665-0.592,2.466
		c-0.276,0.843-0.477,1.704-0.695,2.559C333.353,73.067,333.261,73.714,332.979,74.341z"/>
	<path fill-rule="evenodd" clip-rule="evenodd" fill="#155E5C" d="M195.16,67.705c0.127,0.489,0.315,0.973,0.37,1.47
		c0.12,1.102,0.563,2.115,0.796,3.185c0.124,0.569,0.151,1.177,0.344,1.711c0.349,0.966,0.575,1.961,0.771,2.955
		c0.192,0.968,0.572,1.881,0.718,2.854c0.047,0.313,0.188,0.387,0.48,0.376c0.563-0.021,1.129-0.023,1.693,0.002
		c0.257,0.01,0.372-0.088,0.434-0.316c0.908-3.294,1.817-6.588,2.73-9.881c0.193-0.702,0.398-1.404,0.687-2.093
		c0,0.185,0,0.369,0,0.552c0,3.743,0.007,7.484-0.009,11.228c-0.001,0.383,0.071,0.533,0.492,0.513
		c0.772-0.037,1.549-0.021,2.322-0.004c0.267,0.004,0.363-0.065,0.362-0.351c-0.009-4.775-0.01-9.549-0.003-14.323
		c0.001-0.283-0.09-0.354-0.36-0.353c-1.564,0.011-3.13,0.013-4.695-0.001c-0.287-0.003-0.38,0.109-0.446,0.369
		c-0.527,2.071-1.069,4.141-1.605,6.209c-0.218,0.839-0.434,1.679-0.739,2.529c-0.149-0.614-0.302-1.229-0.446-1.846
		c-0.53-2.27-1.063-4.539-1.577-6.813c-0.077-0.344-0.212-0.457-0.571-0.452c-1.549,0.022-3.098,0.02-4.646,0.002
		c-0.344-0.004-0.425,0.1-0.424,0.432c0.01,4.727,0.011,9.452-0.001,14.179c-0.001,0.352,0.109,0.429,0.437,0.42
		c0.79-0.022,1.582-0.029,2.371,0.001c0.37,0.015,0.449-0.1,0.448-0.455c-0.013-3.855-0.007-7.71-0.007-11.565
		c0-0.173,0-0.346,0-0.52C195.11,67.714,195.135,67.71,195.16,67.705z"/>
	<path fill-rule="evenodd" clip-rule="evenodd" fill="#FFFFFF" d="M350.922,79.012c0.022,0.134,0.033,0.164,0.035,0.197
		c0.021,1.026,0.021,1.026,1.071,1.026c0.957,0,0.957,0,0.957-0.947c0-2.29-0.012-4.579,0.005-6.868
		c0.007-0.998-0.204-1.958-0.855-2.687c-0.534-0.598-1.304-0.948-2.13-1.109c-1.688-0.327-3.367-0.267-5.04,0.063
		c-0.325,0.064-0.652,0.046-0.982,0.126c-0.342,0.083-0.411,0.242-0.346,0.489c0.11,0.411,0.092,0.822,0.08,1.233
		c-0.011,0.325,0.091,0.393,0.392,0.282c1.017-0.375,2.068-0.602,3.147-0.688c0.712-0.058,1.42-0.005,2.113,0.153
		c1.021,0.229,1.591,0.969,1.595,1.99c0.001,0.241-0.055,0.337-0.316,0.343c-1.092,0.025-2.178,0.181-3.274,0.194
		c-0.821,0.013-1.586,0.347-2.348,0.644c-1.595,0.621-2.323,1.82-2.396,3.5c-0.095,2.129,2.008,3.462,3.466,3.578
		c1.266,0.102,2.474-0.16,3.604-0.681C350.113,79.66,350.491,79.336,350.922,79.012z M350.958,75.807
		c0,0.437-0.007,0.87,0.003,1.304c0.003,0.177-0.043,0.299-0.193,0.407c-1.276,0.913-2.664,1.409-4.257,1.175
		c-1.505-0.222-2.265-1.768-1.458-3c0.391-0.598,1.007-0.886,1.674-1.06c1.301-0.338,2.644-0.328,3.97-0.458
		c0.238-0.023,0.267,0.092,0.264,0.281C350.952,74.906,350.958,75.356,350.958,75.807z"/>
	<path fill-rule="evenodd" clip-rule="evenodd" fill="#FFFFFF" d="M251.776,79.063c0.115,0.407-0.157,0.917,0.148,1.127
		c0.254,0.174,0.719,0.045,1.09,0.045c0.826,0.001,0.826,0,0.826-0.839c-0.001-2.371,0.011-4.743-0.007-7.113
		c-0.007-0.772-0.138-1.525-0.605-2.19c-0.708-1.002-1.737-1.39-2.879-1.557c-1.367-0.199-2.732-0.162-4.095,0.071
		c-0.478,0.082-0.975,0.018-1.441,0.225c-0.157,0.069-0.231,0.088-0.225,0.273c0.019,0.483,0.024,0.97,0.011,1.452
		c-0.009,0.31,0.096,0.355,0.371,0.254c1.022-0.378,2.082-0.6,3.166-0.682c0.775-0.06,1.546-0.012,2.296,0.216
		c0.913,0.28,1.426,1.027,1.384,1.973c-0.008,0.194-0.04,0.288-0.264,0.293c-1.092,0.026-2.197,0.074-3.271,0.22
		c-1.6,0.217-3.206,0.616-4.283,1.997c-0.52,0.668-0.555,1.488-0.477,2.304c0.186,1.958,1.724,3.347,3.703,3.416
		c1.206,0.041,2.327-0.256,3.41-0.722C251.036,79.653,251.32,79.257,251.776,79.063z M251.813,75.745
		c0,0.45-0.003,0.901,0.001,1.352c0.001,0.164-0.009,0.294-0.171,0.41c-1.275,0.919-2.662,1.411-4.254,1.188
		c-1.348-0.189-2.051-1.249-1.675-2.549c0.263-0.904,1.009-1.267,1.811-1.494c1.325-0.373,2.705-0.347,4.064-0.479
		c0.222-0.021,0.226,0.114,0.225,0.269C251.811,74.875,251.813,75.311,251.813,75.745z"/>
	<path fill-rule="evenodd" clip-rule="evenodd" fill="#FFFFFF" d="M383.362,79.063c0.023,0.079,0.043,0.119,0.048,0.162
		c0.026,0.317-0.139,0.74,0.065,0.93c0.242,0.225,0.675,0.071,1.024,0.075c0.939,0.012,0.939,0.005,0.939-0.957
		c0-2.274,0.001-4.548,0-6.82c-0.001-2.3-1.173-3.62-3.459-3.921c-1.549-0.203-3.088-0.156-4.612,0.174
		c-0.305,0.066-0.628-0.078-0.924,0.146c-0.146,0.109-0.226,0.183-0.219,0.366c0.012,0.402,0.024,0.807-0.003,1.209
		c-0.025,0.391,0.052,0.504,0.469,0.355c0.972-0.348,1.978-0.569,3.01-0.652c0.729-0.058,1.453-0.008,2.162,0.155
		c0.982,0.225,1.516,0.914,1.555,1.888c0.014,0.321-0.061,0.43-0.406,0.451c-1.286,0.08-2.574,0.134-3.847,0.36
		c-0.666,0.118-1.316,0.294-1.933,0.581c-1.436,0.671-2.134,1.787-2.091,3.382c0.043,1.6,0.842,2.691,2.272,3.28
		c1.445,0.595,2.89,0.337,4.313-0.207C382.323,79.794,382.79,79.365,383.362,79.063z M383.412,75.807
		c0,0.437-0.004,0.871,0.002,1.306c0.002,0.169-0.021,0.301-0.179,0.413c-1.281,0.907-2.673,1.403-4.268,1.166
		c-0.896-0.134-1.504-0.639-1.668-1.391c-0.211-0.973,0.072-1.697,0.866-2.223c0.284-0.188,0.596-0.328,0.92-0.416
		c1.349-0.366,2.744-0.354,4.12-0.491c0.251-0.025,0.202,0.147,0.204,0.281C383.415,74.903,383.412,75.354,383.412,75.807z"/>
	<path fill-rule="evenodd" clip-rule="evenodd" fill="#FFFFFF" d="M321,79.047c0.026,0.096,0.047,0.137,0.049,0.179
		c0.051,1.01,0.051,1.01,1.095,1.01c0.935,0,0.935,0,0.935-0.918c0-2.242-0.001-4.484,0-6.726c0.001-2.418-1.071-3.684-3.458-4.055
		c-1.843-0.285-3.661-0.067-5.471,0.307c-0.217,0.045-0.325,0.15-0.314,0.396c0.021,0.436,0.023,0.872,0.004,1.307
		c-0.014,0.354,0.123,0.352,0.403,0.255c0.978-0.332,1.977-0.564,3.01-0.667c0.87-0.085,1.718,0.031,2.549,0.255
		c0.793,0.213,1.372,1.207,1.257,2.021c-0.037,0.269-0.216,0.186-0.354,0.197c-1.315,0.112-2.64,0.144-3.942,0.385
		c-1.02,0.188-2.01,0.466-2.826,1.153c-1.159,0.977-1.413,2.246-1.063,3.647c0.362,1.451,1.367,2.326,2.794,2.632
		c1.602,0.342,3.123,0.028,4.519-0.848C320.45,79.409,320.712,79.234,321,79.047z M321.052,75.802c0,0.435-0.003,0.868,0.001,1.305
		c0.002,0.166-0.018,0.299-0.177,0.411c-1.268,0.888-2.633,1.396-4.212,1.181c-1.388-0.189-2.127-1.287-1.702-2.607
		c0.266-0.822,0.958-1.188,1.716-1.413c1.355-0.4,2.769-0.369,4.159-0.506c0.233-0.022,0.214,0.131,0.214,0.276
		C321.051,74.899,321.051,75.351,321.052,75.802z"/>
	<path fill-rule="evenodd" clip-rule="evenodd" fill="#FFFFFF" d="M215.722,74.645c1.355,0,2.711-0.007,4.066,0.007
		c0.287,0.003,0.388-0.061,0.384-0.372c-0.014-0.948-0.021-1.886-0.307-2.814c-0.502-1.627-2.002-2.892-3.712-3.008
		c-0.358-0.024-0.685-0.219-1.022-0.188c-1.98,0.182-3.81,0.709-4.965,2.507c-1.314,2.041-1.326,4.238-0.516,6.428
		c0.694,1.878,2.249,2.789,4.15,3.137c1.655,0.301,3.293,0.195,4.882-0.393c0.347-0.129,0.746-0.049,1.063-0.355
		c0.131-0.126,0.198-0.208,0.198-0.371c-0.002-0.5-0.01-1,0.002-1.499c0.009-0.312-0.08-0.324-0.325-0.168
		c-1.373,0.868-2.871,1.323-4.501,1.235c-1.59-0.088-2.87-0.723-3.546-2.253c-0.21-0.474-0.322-0.987-0.342-1.521
		c-0.01-0.301,0.075-0.382,0.375-0.378C212.979,74.653,214.351,74.645,215.722,74.645z M214.695,73.176
		c-1.014,0-2.03-0.021-3.043,0.009c-0.415,0.012-0.452-0.144-0.365-0.477c0.388-1.483,1.309-2.444,2.831-2.675
		c2.186-0.331,3.838,0.415,4.055,2.747c0.034,0.357-0.084,0.403-0.383,0.4C216.758,73.167,215.728,73.176,214.695,73.176z"/>
	<path fill-rule="evenodd" clip-rule="evenodd" fill="#FFFFFF" d="M268.354,74.34c-0.083,0.893,0.017,1.953,0.407,2.883
		c0.678,1.608,1.851,2.796,3.656,3.156c1.913,0.382,3.726,0.202,5.267-1.131c1.037-0.896,1.553-2.075,1.742-3.421
		c0.204-1.441,0.179-2.861-0.391-4.221c-0.781-1.87-2.21-2.862-4.206-3.208c-1.088-0.188-2.115,0.002-3.09,0.296
		c-0.867,0.262-1.593,0.912-2.195,1.654C268.628,71.481,268.365,72.794,268.354,74.34z M277.446,74.15
		c0.017,0.678-0.025,1.354-0.179,2.014c-0.398,1.711-1.572,2.693-3.225,2.721c-1.751,0.029-2.958-0.885-3.388-2.629
		c-0.326-1.32-0.316-2.657,0.093-3.961c0.467-1.49,1.613-2.271,3.22-2.258c1.589,0.014,2.698,0.803,3.179,2.258
		C277.346,72.897,277.407,73.521,277.446,74.15z"/>
	<path fill-rule="evenodd" clip-rule="evenodd" fill="#FFFFFF" d="M258.026,69.947c0-0.188,0.002-0.278,0-0.37
		c-0.012-0.887-0.012-0.887-0.921-0.887c-1.115,0-1.115,0-1.115,1.135c0,3.307,0.007,6.614-0.01,9.922
		c-0.002,0.407,0.116,0.532,0.512,0.495c0.368-0.034,0.744-0.031,1.113-0.001c0.342,0.028,0.43-0.087,0.428-0.426
		c-0.016-2.001-0.008-4-0.008-6.001c0-0.483,0.052-0.976-0.014-1.45c-0.085-0.616,0.201-0.932,0.695-1.212
		c0.807-0.457,1.635-0.862,2.559-0.951c0.694-0.067,1.406,0.064,2.001,0.465c0.549,0.369,0.699,0.983,0.751,1.606
		c0.209,2.464,0.064,4.934,0.085,7.399c0.003,0.469,0.113,0.63,0.581,0.568c0.475-0.06,1.113,0.201,1.388-0.102
		c0.236-0.259,0.079-0.886,0.08-1.351c0.004-1.968-0.001-3.937,0.002-5.905c0.001-0.71-0.064-1.411-0.288-2.089
		c-0.409-1.232-1.245-1.997-2.512-2.297c-0.715-0.17-1.461-0.312-2.155-0.121c-0.9,0.248-1.793,0.586-2.565,1.154
		C258.466,69.653,258.291,69.765,258.026,69.947z"/>
	<path fill-rule="evenodd" clip-rule="evenodd" fill="#FFFFFF" d="M372.42,70.298c-0.8,0.965-1.526,1.841-2.255,2.716
		c-1.534,1.842-3.067,3.686-4.607,5.524c-0.407,0.488-0.179,1.05-0.19,1.578c-0.004,0.204,0.267,0.114,0.408,0.114
		c2.293,0.006,4.584,0.005,6.874,0.005c0.727,0,1.453-0.009,2.178,0.005c0.253,0.005,0.325-0.073,0.336-0.328
		c0.051-1.316,0.06-1.315-1.227-1.315c-1.984,0-3.969,0-5.958,0c-0.048-0.209,0.119-0.297,0.213-0.409
		c2.168-2.602,4.332-5.207,6.518-7.792c0.421-0.498,0.212-1.042,0.242-1.566c0.012-0.206-0.221-0.135-0.35-0.135
		c-1.098-0.006-2.193-0.004-3.29-0.004c-1.792,0-3.583,0.011-5.375-0.009c-0.363-0.004-0.459,0.094-0.453,0.456
		c0.018,1.16,0,1.16,1.142,1.16C368.512,70.298,370.399,70.298,372.42,70.298z"/>
	<path fill-rule="evenodd" clip-rule="evenodd" fill="#FFFFFF" d="M361.857,70.298c-0.747,0.901-1.412,1.704-2.081,2.507
		c-1.559,1.868-3.102,3.75-4.688,5.595c-0.464,0.54-0.273,1.123-0.296,1.696c-0.009,0.214,0.222,0.135,0.349,0.136
		c1.08,0.006,2.162,0.004,3.242,0.004c1.936,0,3.871-0.006,5.807,0.005c0.299,0.002,0.42-0.054,0.42-0.392
		c0.004-1.252,0.018-1.252-1.246-1.252c-1.982,0-3.965,0-5.95,0c-0.04-0.216,0.126-0.301,0.221-0.414
		c2.156-2.59,4.307-5.183,6.485-7.754c0.432-0.509,0.254-1.06,0.273-1.602c0.005-0.196-0.225-0.133-0.355-0.134
		c-1.001-0.005-2.001-0.003-3-0.003c-1.872,0-3.743,0.012-5.614-0.012c-0.414-0.006-0.507,0.116-0.498,0.51
		c0.025,1.109,0.008,1.109,1.143,1.109C357.952,70.298,359.837,70.298,361.857,70.298z"/>
	<path fill-rule="evenodd" clip-rule="evenodd" fill="#FFFFFF" d="M231.571,71.508c0-0.607-0.02-1.189,0.007-1.768
		c0.016-0.301-0.117-0.423-0.367-0.531c-1.345-0.582-2.741-0.852-4.209-0.775c-1.533,0.077-2.774,0.713-3.86,1.781
		c-0.836,0.824-1.275,1.832-1.395,2.93c-0.117,1.093-0.083,2.213,0.179,3.31c0.318,1.342,1.06,2.406,2.171,3.158
		c0.739,0.498,1.632,0.722,2.533,0.819c1.626,0.178,3.168-0.12,4.648-0.794c0.193-0.088,0.31-0.182,0.298-0.425
		c-0.021-0.499-0.014-1-0.002-1.499c0.007-0.323-0.079-0.371-0.348-0.184c-0.826,0.574-1.715,1.004-2.719,1.189
		c-2.65,0.485-4.504-0.956-4.662-3.652c-0.042-0.725-0.025-1.448,0.152-2.16c0.491-1.985,2.094-3.066,4.118-2.787
		c1.092,0.149,2.074,0.565,2.987,1.167C231.23,71.371,231.337,71.508,231.571,71.508z"/>
	<path fill-rule="evenodd" clip-rule="evenodd" fill="#FFFFFF" d="M312.036,71.602c0-0.734-0.011-1.36,0.007-1.985
		c0.006-0.235-0.142-0.299-0.305-0.375c-1.114-0.517-2.284-0.78-3.514-0.823c-0.947-0.035-1.892,0.066-2.74,0.44
		c-0.825,0.365-1.56,0.93-2.139,1.669c-0.731,0.929-1.07,1.956-1.19,3.141c-0.075,0.711-0.066,1.415,0.052,2.073
		c0.181,1.012,0.522,2.008,1.216,2.835c0.687,0.818,1.546,1.364,2.563,1.635c2.012,0.535,3.952,0.265,5.824-0.606
		c0.148-0.07,0.233-0.145,0.231-0.318c-0.008-0.625-0.003-1.25-0.003-1.971c-0.583,0.37-1.094,0.698-1.641,0.957
		c-1.59,0.752-4.259,0.964-5.458-1.041c-0.691-1.156-0.737-2.427-0.591-3.721c0.115-1.003,0.445-1.917,1.249-2.585
		c1.032-0.857,2.219-1.001,3.492-0.714c0.873,0.198,1.677,0.553,2.421,1.043C311.656,71.349,311.801,71.444,312.036,71.602z"/>
	<path fill-rule="evenodd" clip-rule="evenodd" fill="#FFFFFF" d="M242.483,77.306c-0.585,0.389-1.08,0.715-1.619,0.961
		c-0.976,0.449-1.997,0.651-3.058,0.498c-1.753-0.256-2.854-1.511-3.02-3.433c-0.073-0.828-0.078-1.662,0.126-2.48
		c0.555-2.226,2.459-3.133,4.594-2.644c0.544,0.123,1.065,0.283,1.558,0.649c0.326,0.24,0.821,0.356,1.209,0.601
		c0.213,0.133,0.205-0.044,0.205-0.167c0.006-0.596-0.011-1.192,0.009-1.788c0.006-0.184-0.114-0.219-0.214-0.259
		c-0.598-0.245-1.211-0.445-1.836-0.608c-1.267-0.331-2.535-0.294-3.784,0.023c-2.307,0.587-3.883,2.623-4.009,5.083
		c-0.055,1.081-0.066,2.186,0.302,3.188c0.63,1.718,1.844,2.897,3.689,3.328c1.94,0.452,3.797,0.206,5.585-0.648
		c0.244-0.118,0.311-0.243,0.278-0.54C242.438,78.519,242.483,77.955,242.483,77.306z"/>
	<path fill-rule="evenodd" clip-rule="evenodd" fill="#FFFFFF" d="M283.24,73.759c0-0.968,0.02-1.935-0.01-2.901
		c-0.013-0.426,0.077-0.588,0.547-0.57c1.079,0.038,2.161-0.007,3.241,0.021c0.375,0.01,0.446-0.108,0.442-0.458
		c-0.017-1.16-0.002-1.16-1.137-1.16c-0.904,0-1.809-0.012-2.711,0.006c-0.303,0.006-0.383-0.096-0.378-0.387
		c0.017-0.854,0.005-1.709,0.005-2.564c-0.001-0.31,0.018-0.566-0.466-0.413c-0.322,0.102-0.732,0.104-1.051-0.005
		c-0.511-0.175-0.542,0.047-0.536,0.44c0.011,0.838-0.009,1.678,0.01,2.516c0.007,0.312-0.079,0.453-0.406,0.411
		c-0.143-0.019-0.292,0.017-0.434-0.008c-0.492-0.083-0.655,0.17-0.646,0.608c0.025,1.229-0.199,0.994,0.964,0.992
		c0.433-0.002,0.526,0.116,0.527,0.535c0.006,2.145-0.085,4.29,0.048,6.433c0.097,1.548,0.838,2.559,2.18,2.986
		c0.828,0.265,1.679,0.263,2.532,0.139c0.046-0.008,0.093-0.038,0.139-0.035c0.453,0.023,1.019,0.016,1.271-0.257
		c0.266-0.287,0.067-0.861,0.078-1.31c0.01-0.361-0.213-0.507-0.534-0.33c-0.77,0.418-1.581,0.368-2.386,0.21
		c-0.712-0.14-1.219-0.853-1.238-1.706c-0.025-1.064-0.007-2.128-0.007-3.192C283.27,73.759,283.255,73.759,283.24,73.759z"/>
	<path fill-rule="evenodd" clip-rule="evenodd" fill="#FFFFFF" d="M289.583,74.247c0,1.192-0.062,2.389,0.028,3.573
		c0.038,0.504,0.337,1.007,0.668,1.444c0.619,0.821,1.509,1.065,2.457,1.163c0.906,0.095,1.8-0.051,2.691-0.203
		c0.286-0.05,0.402-0.183,0.371-0.482c-0.027-0.271-0.005-0.548-0.006-0.823c-0.002-0.581-0.042-0.631-0.587-0.44
		c-0.64,0.224-1.276,0.279-1.956,0.259c-0.978-0.03-1.614-1.002-1.626-1.755c-0.034-2.128-0.021-4.256-0.039-6.384
		c-0.002-0.282,0.128-0.306,0.354-0.305c1.145,0.009,2.289-0.008,3.435,0.013c0.332,0.007,0.433-0.076,0.43-0.422
		c-0.014-1.194,0.003-1.194-1.2-1.194c-0.871,0-1.741-0.015-2.612,0.007c-0.314,0.007-0.417-0.078-0.409-0.4
		c0.022-0.854-0.003-1.708,0.015-2.563c0.005-0.295-0.084-0.406-0.384-0.382c-0.539,0.042-1.234-0.221-1.577,0.108
		c-0.301,0.287-0.07,0.98-0.083,1.494c-0.011,0.467-0.014,0.936,0.002,1.402c0.009,0.253-0.079,0.365-0.333,0.337
		c-0.015-0.002-0.032-0.002-0.047-0.001c-0.334,0.025-0.863-0.146-0.959,0.084c-0.161,0.386-0.057,0.882-0.064,1.333
		c-0.003,0.21,0.158,0.155,0.274,0.163c1.124,0.078,1.124,0.078,1.124,1.219c0,0.919,0,1.839,0,2.757
		C289.562,74.247,289.572,74.247,289.583,74.247z"/>
	<path fill-rule="evenodd" clip-rule="evenodd" fill="#FFFFFF" d="M299.656,74.443c0-1.758-0.015-3.516,0.012-5.271
		c0.007-0.421-0.124-0.523-0.512-0.489c-0.384,0.034-0.774,0.023-1.16,0.001c-0.295-0.019-0.391,0.075-0.383,0.378
		c0.021,0.822,0.007,1.644,0.007,2.467c0,2.725,0.013,5.449-0.012,8.175c-0.005,0.467,0.146,0.578,0.568,0.539
		c0.352-0.033,0.712-0.033,1.063-0.002c0.349,0.031,0.427-0.095,0.425-0.429C299.647,78.022,299.657,76.233,299.656,74.443z"/>
	<path fill-rule="evenodd" clip-rule="evenodd" fill="#FFFFFF" d="M390.557,78.908c-0.4,0.989,0.197,1.159,0.875,1.314
		c0.755,0.178,1.504,0.185,2.223-0.086c0.684-0.258,1.103-0.772,1.095-1.534c-0.009-0.751-0.456-1.178-1.149-1.363
		c-0.491-0.129-0.995-0.213-1.484-0.348c-0.348-0.099-0.671-0.281-0.67-0.703c0.002-0.455,0.326-0.62,0.718-0.735
		c0.827-0.242,1.516,0.15,2.229,0.446c0.397-0.806,0.37-0.806-0.506-1.069c-0.914-0.275-1.768-0.247-2.655,0.146
		c-0.693,0.309-0.979,0.938-0.926,1.501c0.055,0.592,0.531,1.123,1.278,1.225c0.53,0.076,1.048,0.233,1.569,0.354
		c0.411,0.096,0.691,0.307,0.64,0.778c-0.052,0.457-0.376,0.628-0.771,0.692C392.129,79.671,391.328,79.401,390.557,78.908z"/>
	<path fill-rule="evenodd" clip-rule="evenodd" fill="#FFFFFF" d="M298.61,64.738c-1.108,0-1.108,0-1.108,1.084
		c0,0.936,0,0.943,0.928,0.935c0.432-0.005,0.988,0.18,1.26-0.077c0.277-0.263,0.078-0.826,0.088-1.256
		c0.015-0.686,0.004-0.687-0.683-0.687C298.934,64.738,298.772,64.738,298.61,64.738z"/>
	<path fill-rule="evenodd" clip-rule="evenodd" fill="#FFFFFF" d="M396.877,75.457c-0.112-0.385-0.063-0.785-0.611-0.729
		c-0.557,0.057-0.368,0.44-0.373,0.711c-0.018,1.396-0.008,2.789-0.008,4.185c0,0.289-0.072,0.58,0.414,0.582
		c0.484,0.004,0.501-0.245,0.496-0.604c-0.017-0.724-0.007-1.45-0.007-2.174c0-1.352,0.442-1.772,1.824-1.784
		c0.219-0.001,0.576,0.242,0.654-0.19c0.067-0.357,0.062-0.703-0.471-0.713C398.091,74.73,397.498,75.017,396.877,75.457z"/>
	<path fill-rule="evenodd" clip-rule="evenodd" fill="#FFFFFF" d="M400.899,76.379c0-1.073-0.003-2.146,0-3.219
		c0-0.302,0.046-0.575-0.429-0.578c-0.451-0.002-0.527,0.178-0.524,0.572c0.014,2.176,0.012,4.347,0,6.52
		c-0.003,0.358,0.067,0.529,0.479,0.532c0.412,0.004,0.484-0.165,0.479-0.525C400.889,78.583,400.899,77.479,400.899,76.379z"/>
</g>
<g>
	<path fill="#9CFFFE" d="M0.002,88.108c2.866,0.504,6.481,1.371,9.352,1.849c2.6,0.436,5.334,0.9,7.99,1.34
		c-0.057-0.977-0.136-1.907-0.161-2.843c-0.132-5.139-0.063-10.3,0.505-15.412c0.465-4.188,1.123-8.341,1.988-12.459
		c1.484-7.057,3.514-13.953,6.119-20.67c0.806-2.076,0.248-1.744,2.529-1.442c0.972,0.129,0.983,0.179,0.835,1.166
		c-0.351,2.336-0.529,4.691-0.614,7.047c-0.254,7.088,0.054,14.147,1.178,21.165c1.528,9.546,4.367,18.634,9.006,27.115
		c0.272,0.497,0.605,0.73,1.127,0.842c5.961,1.257,11.967,2.27,17.95,3.399c0.418,0.079,1.407-0.137,1.321-0.579
		c-0.967-4.976-1.729-9.803-0.631-14.732c1.635-7.341,5.213-13.611,10.305-19.025c4.059-4.317,8.774-7.762,13.903-10.644
		c0.471-0.265,0.837-0.586,1.115-1.058c0.889-1.516,1.811-3.012,2.709-4.522c0.602-1.013,0.593-1.018,1.763-0.816
		c0.067,0.012,0.133,0.033,0.2,0.043c0.838,0.138,0.619,0.102,0.219,0.89c-0.463,0.91-0.819,1.861-0.958,2.958
		c0.182-0.063,0.448-0.08,0.548-0.125c5.66-2.543,11.554-4.293,17.647-5.362c2.737-0.479,5.491-0.819,8.266-1.001
		c3.181-0.209,6.36-0.414,9.527,0.147c0.523,0.092,0.798-0.04,1.069-0.525c4.358-7.789,9.184-15.248,15.156-21.889
		c0.747-0.83,0.73-0.83-0.145-1.536c-4.334-3.5-9.076-6.325-14.07-8.731c-7.594-3.661-15.525-6.313-23.721-8.179
		c-0.584-0.134-1.124-0.12-1.704,0.117c-4.754,1.938-9.059,4.643-13.097,7.81c-5.404,4.237-10.204,9.113-14.678,14.332
		c-5.898,6.879-11.151,13.734-15.85,21.505c-0.58,0.959-0.571,0.958-1.63,0.625c-0.107-0.034-0.212-0.074-0.319-0.109
		c-0.378-0.126,0,0-0.444-0.278c0.409-2.829,0.802-5.661,1.154-8.496c0.373-3.021,0.748-6.042,1.026-9.072
		c0.351-3.807,0.646-7.621,0.872-11.438c0.362-6.114,0.556-12.23,0.531-18.354c-0.002-0.568-0.175-0.688-0.688-0.655
		c-2.39,0.155-4.781,0.282-7.172,0.413c-3.723,0.206-7.446,0.397-11.168,0.604c-3.723,0.208-7.444,0.43-11.167,0.638
		c-2.819,0.157-5.64,0.305-8.46,0.451c-0.58,0.03-1.085,0.169-1.527,0.603c-0.614,0.606-1.303,1.135-1.934,1.724
		C9.279,11.008,4.107,18.046,0.617,26.311C0.471,26.655,0.404,27.042,0,27.488L0.002,88.108z"/>
</g>
<g>
	<path fill-rule="evenodd" clip-rule="evenodd" fill="#155E5C" d="M68.245,117.303c0.993,1.117,1.987,1.989,2.998,2.84
		c6.851,5.772,14.573,9.999,23.026,12.921c5.162,1.785,10.461,2.971,15.88,3.622c3.912,0.471,7.84,0.602,11.778,0.509
		c6.476-0.152,12.886-0.805,19.235-2.136c7.079-1.483,13.388-4.691,19.463-8.445c4.875-3.011,9.386-6.496,12.875-11.087
		c3.271-4.304,6.235-8.811,7.626-14.151c1.079-4.14,1.553-8.342,1.262-12.604c-0.787-11.542-6.085-20.814-14.562-28.415
		c-5.814-5.211-12.576-8.749-20.049-10.949c-0.509-0.15-0.588-0.393-0.587-0.853c0.011-15.869,0.011-31.739,0.007-47.608
		c0-1.082,0.154-0.929-0.934-0.929C97.784,0.013,49.305,0.015,0.826,0C0.185,0-0.001,0.149,0,0.812
		C0.024,9.22,0.015,17.63,0.015,26.039c0,0.367,0,0.734,0,1.266c0.404-0.44,0.471-0.821,0.617-1.161
		c3.491-8.146,8.663-15.082,15.156-21.066c0.631-0.581,1.32-1.101,1.934-1.699c0.442-0.427,0.947-0.564,1.527-0.594
		c2.82-0.144,5.641-0.289,8.46-0.444c3.723-0.205,7.444-0.424,11.167-0.629c3.722-0.204,7.446-0.394,11.168-0.595
		c2.391-0.129,4.783-0.255,7.172-0.408c0.514-0.033,0.687,0.086,0.688,0.646c0.024,6.036-0.169,12.064-0.531,18.09
		c-0.227,3.763-0.521,7.521-0.872,11.273c-0.279,2.986-0.653,5.964-1.026,8.941c-0.352,2.795-0.745,5.585-1.154,8.374
		c-0.063,0.432,0.051,0.641,0.429,0.766c0.107,0.035,0.212,0.076,0.319,0.109c1.059,0.328,1.05,0.321,1.63-0.625
		c4.699-7.659,9.967-14.898,15.865-21.678c4.475-5.144,9.274-9.95,14.678-14.126c4.038-3.121,8.343-5.788,13.097-7.697
		c0.58-0.233,1.12-0.248,1.704-0.116c8.196,1.84,16.127,4.453,23.721,8.061c4.994,2.372,9.736,5.155,14.07,8.605
		c0.875,0.696,0.892,0.696,0.145,1.514c-5.973,6.545-10.798,13.896-15.156,21.573c-0.271,0.478-0.545,0.608-1.069,0.517
		c-3.167-0.552-6.346-0.351-9.527-0.145c-2.775,0.18-5.528,0.515-8.266,0.987c-6.093,1.053-11.988,2.778-17.647,5.285
		c-0.1,0.044-0.206,0.072-0.387,0.134c0.138-1.081,0.548-1.997,1.011-2.894c0.4-0.776,0.406-0.773-0.433-0.909
		c-0.067-0.011-0.133-0.031-0.2-0.043c-1.169-0.199-1.161-0.194-1.763,0.804c-0.898,1.488-1.82,2.963-2.709,4.457
		c-0.277,0.466-0.644,0.783-1.115,1.043c-5.129,2.84-9.844,6.236-13.903,10.491c-5.092,5.336-8.67,11.517-10.305,18.752
		c-1.098,4.857-1.261,9.745-0.294,14.647c0.086,0.438,0.023,0.52-0.396,0.442c-5.983-1.113-11.989-2.112-17.95-3.35
		c-0.521-0.109-0.855-0.34-1.127-0.83c-4.639-8.358-7.478-17.316-9.006-26.724c-1.124-6.916-1.433-13.874-1.178-20.86
		c0.084-2.322,0.263-4.643,0.614-6.945c0.148-0.973,0.137-1.022-0.835-1.149c-2.281-0.297-1.723-0.625-2.529,1.422
		c-2.604,6.62-4.635,13.417-6.119,20.372c-0.865,4.059-1.522,8.153-1.988,12.281c-0.568,5.039-0.772,10.088-0.64,15.152
		c0.025,0.922,0.104,1.841,0.161,2.803c-2.655-0.434-5.255-0.854-7.855-1.284c-2.871-0.472-5.743-0.935-8.609-1.431
		C0.159,87.338,0,87.484,0.002,88.108c0.022,7.234,0.023,14.468,0,21.701c-0.002,0.604,0.152,0.74,0.747,0.74
		c22.092-0.018,44.183-0.016,66.275-0.023c0.25,0,0.609,0.156,0.732-0.122c0.109-0.243-0.159-0.491-0.304-0.716
		c-2.819-4.367-4.708-9.095-5.427-14.251c-0.881-6.327,0.013-12.428,2.602-18.266c2.574-5.807,6.435-10.651,11.244-14.753
		c7.661-6.531,16.558-10.547,26.313-12.755c7.757-1.756,15.601-2.195,23.517-1.401c9.282,0.931,18.074,3.465,26.231,8.038
		c6.985,3.916,12.921,9.008,17.296,15.789c3.024,4.685,4.939,9.788,5.491,15.348c0.796,8.012-1.168,15.369-5.499,22.112
		c-7.195,11.206-17.408,18.253-30.169,21.737c-7.881,2.153-15.912,2.767-24.048,2.211c-6.749-0.461-13.316-1.777-19.754-3.863
		c-7.799-2.526-14.707-6.53-20.737-12.067c-0.173-0.157-0.342-0.271-0.592-0.27C72.088,117.305,70.257,117.303,68.245,117.303z"/>
	<path fill-rule="evenodd" clip-rule="evenodd" fill="#155E5C" d="M131.848,77.313c0-8.204-0.007-16.409,0.014-24.613
		c0.002-0.707-0.15-0.981-0.926-1.099c-6.984-1.055-13.984-1.348-21.02-0.637c-3.491,0.353-6.93,0.956-10.309,1.916
		c-0.641,0.182-0.885,0.422-0.885,1.134c0.024,16.025,0.024,32.048,0.004,48.073c0,0.625,0.184,0.732,0.758,0.731
		c10.535-0.018,21.07-0.019,31.605,0.001c0.606,0.001,0.749-0.165,0.748-0.757c-0.021-8.25-0.014-16.499-0.014-24.749
		C131.833,77.313,131.841,77.313,131.848,77.313z"/>
	<path fill-rule="evenodd" clip-rule="evenodd" fill="#155E5C" d="M95.065,54.1c-10.053,4.117-18.934,9.741-25.246,18.812
		c-1.15,1.653-2.12,3.411-2.927,5.258c-2.271,5.199-2.727,10.635-2.1,16.205c0.31,2.749,0.983,5.41,2.042,7.975
		c0.186,0.453,0.423,0.588,0.899,0.584c3.595-0.02,7.19-0.021,10.785,0.002c0.471,0.004,0.666-0.139,0.81-0.577
		c3.989-12.128,7.992-24.25,11.988-36.373c1.491-4.525,2.7-8.234,3.642-11.123C95.027,54.653,95.16,54.453,95.065,54.1z"/>
</g>
<text transform="matrix(1 0 0 1 192.6646 100.2051)" fill="#FFFFFF" font-family="'CenturyGothic-Bold'" font-size="15.0459" letter-spacing="4">ambienti  oftalmici</text>
</svg>
