<?xml version="1.0" encoding="utf-8"?>
<!-- Generator: Adobe Illustrator 16.0.0, SVG Export Plug-In . SVG Version: 6.00 Build 0)  -->
<!DOCTYPE svg PUBLIC "-//W3C//DTD SVG 1.1//EN" "http://www.w3.org/Graphics/SVG/1.1/DTD/svg11.dtd">
<svg version="1.1" id="Livello_1" xmlns="http://www.w3.org/2000/svg" xmlns:xlink="http://www.w3.org/1999/xlink" x="0px" y="0px"
	 width="402px" height="137.223px" viewBox="0 0 402 137.223" enable-background="new 0 0 402 137.223" xml:space="preserve">
<g>
	<path fill="#155E5C" d="M332.979,74.341c-0.684-2.911-1.371-5.821-2.039-8.736c-0.067-0.308-0.188-0.377-0.479-0.375
		c-1.58,0.014-3.161,0.014-4.742,0c-0.303-0.003-0.412,0.06-0.41,0.393c0.012,4.742,0.012,9.482-0.002,14.227
		c0,0.359,0.123,0.417,0.441,0.409c0.789-0.021,1.582-0.026,2.372,0.002c0.374,0.014,0.479-0.088,0.478-0.474
		c-0.016-3.808-0.01-7.613-0.01-11.421c0-0.204,0-0.408,0.038-0.618c0.235,0.861,0.422,1.729,0.635,2.591
		c0.228,0.938,0.507,1.868,0.728,2.811c0.175,0.742,0.285,1.502,0.468,2.244c0.174,0.707,0.451,1.394,0.592,2.106
		c0.167,0.851,0.53,1.657,0.56,2.538c0.009,0.255,0.207,0.208,0.354,0.211c0.645,0.007,1.29-0.006,1.936,0.008
		c0.227,0.006,0.291-0.09,0.348-0.293c0.527-1.938,1.068-3.871,1.607-5.805c0.576-2.077,1.155-4.152,1.83-6.225
		c0,0.174,0,0.352,0,0.526c0,3.773,0.008,7.549-0.009,11.321c-0.002,0.377,0.088,0.493,0.474,0.479
		c0.772-0.032,1.549-0.021,2.322-0.004c0.277,0.006,0.348-0.082,0.348-0.354c-0.008-4.773-0.008-9.549,0-14.321
		c0-0.274-0.073-0.354-0.352-0.353c-1.58,0.013-3.161,0.006-4.742,0.004c-0.281,0-0.419,0.064-0.429,0.413
		c-0.017,0.618-0.351,1.17-0.492,1.768c-0.196,0.821-0.327,1.665-0.592,2.466c-0.276,0.843-0.478,1.704-0.694,2.559
		C333.354,73.067,333.261,73.714,332.979,74.341z"/>
	<path fill="#155E5C" d="M195.16,67.705c0.127,0.488,0.315,0.973,0.37,1.47c0.12,1.102,0.563,2.115,0.796,3.185
		c0.124,0.569,0.151,1.178,0.344,1.711c0.349,0.967,0.575,1.961,0.771,2.955c0.192,0.969,0.572,1.881,0.718,2.854
		c0.047,0.313,0.188,0.387,0.48,0.376c0.563-0.021,1.129-0.023,1.693,0.002c0.257,0.01,0.372-0.088,0.434-0.316
		c0.908-3.294,1.817-6.588,2.73-9.881c0.193-0.702,0.398-1.404,0.688-2.093c0,0.185,0,0.369,0,0.552
		c0,3.743,0.006,7.484-0.01,11.229c-0.001,0.383,0.071,0.532,0.492,0.513c0.771-0.037,1.549-0.021,2.322-0.004
		c0.267,0.004,0.363-0.065,0.361-0.352c-0.009-4.774-0.01-9.549-0.002-14.322c0-0.283-0.091-0.354-0.361-0.354
		c-1.563,0.012-3.129,0.014-4.694-0.001c-0.287-0.003-0.38,0.109-0.446,0.369c-0.527,2.071-1.069,4.141-1.604,6.209
		c-0.218,0.839-0.434,1.679-0.739,2.529c-0.149-0.614-0.302-1.229-0.446-1.847c-0.53-2.27-1.063-4.538-1.577-6.813
		c-0.077-0.344-0.212-0.457-0.571-0.452c-1.549,0.022-3.098,0.021-4.646,0.002c-0.344-0.004-0.425,0.101-0.424,0.433
		c0.01,4.727,0.011,9.451-0.001,14.179c-0.001,0.352,0.109,0.429,0.437,0.42c0.79-0.022,1.582-0.029,2.371,0.001
		c0.37,0.015,0.449-0.1,0.448-0.455c-0.013-3.855-0.007-7.71-0.007-11.565c0-0.173,0-0.346,0-0.52
		C195.11,67.714,195.135,67.71,195.16,67.705z"/>
	<path fill="#FFFFFF" d="M350.922,79.012c0.021,0.134,0.033,0.164,0.035,0.197c0.021,1.025,0.021,1.025,1.07,1.025
		c0.957,0,0.957,0,0.957-0.946c0-2.29-0.012-4.579,0.006-6.868c0.007-0.998-0.204-1.958-0.855-2.688
		c-0.533-0.598-1.304-0.947-2.13-1.108c-1.688-0.327-3.366-0.268-5.04,0.063c-0.324,0.064-0.652,0.046-0.982,0.126
		c-0.342,0.083-0.41,0.242-0.346,0.489c0.11,0.411,0.092,0.822,0.08,1.233c-0.011,0.324,0.092,0.393,0.393,0.281
		c1.017-0.375,2.067-0.602,3.146-0.688c0.712-0.059,1.42-0.005,2.113,0.152c1.021,0.229,1.591,0.97,1.595,1.99
		c0.001,0.241-0.055,0.337-0.315,0.343c-1.092,0.025-2.179,0.182-3.274,0.194c-0.821,0.013-1.586,0.347-2.349,0.645
		c-1.594,0.62-2.322,1.819-2.396,3.5c-0.095,2.129,2.009,3.462,3.466,3.577c1.266,0.103,2.475-0.159,3.604-0.681
		C350.113,79.66,350.491,79.336,350.922,79.012z M350.958,75.807c0,0.438-0.007,0.87,0.003,1.304c0.003,0.178-0.043,0.3-0.193,0.407
		c-1.275,0.913-2.664,1.409-4.256,1.175c-1.506-0.222-2.266-1.768-1.459-3c0.391-0.598,1.008-0.886,1.674-1.06
		c1.301-0.338,2.645-0.328,3.971-0.458c0.238-0.023,0.267,0.092,0.264,0.281C350.952,74.906,350.958,75.356,350.958,75.807z"/>
	<path fill="#FFFFFF" d="M251.775,79.063c0.115,0.407-0.156,0.917,0.148,1.127c0.254,0.174,0.719,0.045,1.09,0.045
		c0.826,0.001,0.826,0,0.826-0.839c-0.001-2.371,0.012-4.743-0.007-7.112c-0.007-0.772-0.138-1.525-0.604-2.19
		c-0.709-1.002-1.737-1.39-2.879-1.557c-1.367-0.199-2.732-0.162-4.096,0.07c-0.479,0.082-0.975,0.019-1.441,0.226
		c-0.156,0.068-0.23,0.088-0.225,0.272c0.02,0.483,0.023,0.971,0.012,1.452c-0.01,0.311,0.096,0.355,0.371,0.254
		c1.021-0.378,2.081-0.6,3.166-0.682c0.774-0.061,1.545-0.012,2.295,0.216c0.914,0.28,1.426,1.027,1.385,1.973
		c-0.008,0.194-0.041,0.288-0.265,0.293c-1.092,0.026-2.196,0.074-3.271,0.221c-1.6,0.217-3.206,0.615-4.283,1.997
		c-0.52,0.668-0.555,1.487-0.477,2.304c0.186,1.958,1.724,3.347,3.703,3.416c1.205,0.041,2.326-0.256,3.409-0.722
		C251.036,79.653,251.32,79.257,251.775,79.063z M251.813,75.745c0,0.449-0.002,0.9,0.002,1.352c0,0.164-0.01,0.294-0.172,0.41
		c-1.274,0.919-2.662,1.411-4.254,1.188c-1.348-0.188-2.051-1.249-1.675-2.549c0.263-0.903,1.009-1.267,1.812-1.494
		c1.324-0.373,2.705-0.347,4.063-0.479c0.222-0.021,0.226,0.114,0.226,0.269C251.811,74.875,251.813,75.311,251.813,75.745z"/>
	<path fill="#FFFFFF" d="M383.361,79.063c0.023,0.079,0.043,0.119,0.049,0.162c0.025,0.317-0.139,0.74,0.064,0.93
		c0.242,0.226,0.676,0.071,1.024,0.075c0.938,0.013,0.938,0.005,0.938-0.957c0-2.273,0.002-4.548,0-6.819
		c0-2.301-1.172-3.62-3.459-3.922c-1.549-0.202-3.088-0.155-4.611,0.175c-0.305,0.065-0.629-0.078-0.924,0.146
		c-0.146,0.109-0.227,0.184-0.219,0.366c0.012,0.402,0.023,0.807-0.004,1.209c-0.025,0.391,0.053,0.504,0.469,0.354
		c0.973-0.348,1.979-0.568,3.011-0.651c0.729-0.059,1.452-0.008,2.161,0.155c0.982,0.225,1.517,0.914,1.556,1.888
		c0.015,0.321-0.062,0.43-0.406,0.451c-1.286,0.08-2.573,0.134-3.847,0.359c-0.666,0.118-1.316,0.294-1.934,0.581
		c-1.436,0.671-2.133,1.787-2.09,3.382c0.043,1.601,0.842,2.691,2.271,3.28c1.445,0.595,2.89,0.337,4.313-0.207
		C382.323,79.794,382.79,79.365,383.361,79.063z M383.412,75.807c0,0.438-0.004,0.871,0.002,1.306
		c0.002,0.169-0.021,0.302-0.18,0.413c-1.28,0.907-2.672,1.403-4.268,1.166c-0.896-0.134-1.504-0.639-1.668-1.391
		c-0.211-0.973,0.072-1.697,0.866-2.223c0.284-0.188,0.597-0.328,0.92-0.416c1.349-0.366,2.744-0.354,4.12-0.491
		c0.251-0.025,0.202,0.146,0.204,0.281C383.415,74.903,383.412,75.354,383.412,75.807z"/>
	<path fill="#FFFFFF" d="M321,79.047c0.025,0.096,0.047,0.137,0.049,0.179c0.051,1.01,0.051,1.01,1.096,1.01
		c0.935,0,0.935,0,0.935-0.918c0-2.241-0.001-4.483,0-6.726c0.001-2.418-1.071-3.684-3.458-4.055
		c-1.844-0.285-3.661-0.067-5.471,0.307c-0.217,0.045-0.325,0.15-0.314,0.396c0.021,0.437,0.023,0.872,0.004,1.308
		c-0.014,0.354,0.123,0.352,0.403,0.255c0.978-0.332,1.978-0.564,3.01-0.667c0.87-0.085,1.718,0.031,2.55,0.255
		c0.793,0.213,1.371,1.207,1.256,2.021c-0.037,0.269-0.216,0.186-0.354,0.196c-1.314,0.112-2.641,0.145-3.941,0.386
		c-1.021,0.188-2.011,0.466-2.826,1.152c-1.16,0.978-1.414,2.246-1.063,3.647c0.362,1.451,1.367,2.326,2.794,2.632
		c1.602,0.342,3.123,0.028,4.52-0.848C320.45,79.409,320.712,79.234,321,79.047z M321.052,75.802c0,0.435-0.003,0.868,0.001,1.305
		c0.002,0.166-0.018,0.299-0.177,0.411c-1.269,0.888-2.633,1.396-4.212,1.181c-1.389-0.188-2.127-1.286-1.702-2.606
		c0.267-0.822,0.958-1.188,1.716-1.413c1.355-0.4,2.77-0.369,4.159-0.506c0.233-0.022,0.214,0.131,0.214,0.275
		C321.051,74.899,321.051,75.351,321.052,75.802z"/>
	<path fill="#FFFFFF" d="M215.723,74.645c1.354,0,2.711-0.007,4.065,0.007c0.287,0.003,0.388-0.061,0.384-0.372
		c-0.014-0.947-0.021-1.886-0.307-2.813c-0.502-1.627-2.002-2.893-3.713-3.008c-0.357-0.024-0.685-0.22-1.021-0.188
		c-1.98,0.183-3.811,0.709-4.965,2.507c-1.314,2.041-1.326,4.238-0.516,6.429c0.693,1.878,2.248,2.789,4.149,3.137
		c1.655,0.301,3.293,0.195,4.882-0.394c0.348-0.129,0.746-0.049,1.063-0.354c0.131-0.126,0.198-0.208,0.198-0.371
		c-0.002-0.5-0.01-1,0.002-1.499c0.009-0.312-0.08-0.324-0.325-0.168c-1.373,0.868-2.871,1.323-4.501,1.235
		c-1.59-0.088-2.87-0.724-3.547-2.253c-0.209-0.475-0.321-0.987-0.342-1.521c-0.01-0.301,0.076-0.382,0.375-0.378
		C212.979,74.653,214.352,74.645,215.723,74.645z M214.695,73.176c-1.014,0-2.03-0.021-3.043,0.009
		c-0.416,0.012-0.452-0.144-0.365-0.477c0.388-1.483,1.309-2.444,2.831-2.675c2.187-0.331,3.838,0.414,4.055,2.746
		c0.034,0.357-0.084,0.403-0.383,0.4C216.758,73.167,215.729,73.176,214.695,73.176z"/>
	<path fill="#FFFFFF" d="M268.354,74.34c-0.082,0.893,0.018,1.953,0.408,2.883c0.678,1.608,1.85,2.796,3.655,3.156
		c1.913,0.382,3.726,0.202,5.267-1.131c1.037-0.896,1.553-2.075,1.742-3.421c0.204-1.441,0.18-2.861-0.391-4.222
		c-0.781-1.87-2.21-2.861-4.206-3.208c-1.088-0.188-2.115,0.002-3.09,0.296c-0.867,0.263-1.593,0.912-2.195,1.654
		C268.628,71.481,268.365,72.794,268.354,74.34z M277.445,74.15c0.018,0.679-0.024,1.354-0.178,2.015
		c-0.398,1.711-1.572,2.692-3.226,2.721c-1.751,0.029-2.958-0.885-3.388-2.629c-0.326-1.32-0.316-2.657,0.093-3.961
		c0.467-1.49,1.612-2.271,3.22-2.258c1.59,0.014,2.698,0.803,3.18,2.258C277.346,72.897,277.407,73.521,277.445,74.15z"/>
	<path fill="#FFFFFF" d="M258.025,69.947c0-0.188,0.002-0.277,0-0.369c-0.012-0.888-0.012-0.888-0.92-0.888
		c-1.115,0-1.115,0-1.115,1.136c0,3.307,0.007,6.613-0.01,9.922c-0.002,0.406,0.115,0.531,0.512,0.495
		c0.367-0.034,0.744-0.031,1.113-0.002c0.342,0.028,0.43-0.087,0.428-0.426c-0.016-2.001-0.008-4-0.008-6.001
		c0-0.482,0.052-0.976-0.014-1.45c-0.086-0.615,0.2-0.932,0.694-1.212c0.808-0.457,1.635-0.861,2.56-0.95
		c0.693-0.067,1.405,0.063,2,0.465c0.549,0.369,0.699,0.982,0.752,1.605c0.209,2.464,0.063,4.935,0.084,7.399
		c0.004,0.469,0.113,0.63,0.582,0.567c0.475-0.06,1.112,0.201,1.387-0.102c0.236-0.259,0.08-0.886,0.08-1.351
		c0.004-1.969,0-3.938,0.002-5.905c0.002-0.71-0.063-1.411-0.287-2.089c-0.409-1.232-1.245-1.997-2.512-2.297
		c-0.715-0.17-1.461-0.313-2.155-0.121c-0.9,0.248-1.793,0.586-2.565,1.153C258.466,69.653,258.291,69.765,258.025,69.947z"/>
	<path fill="#FFFFFF" d="M372.42,70.298c-0.8,0.965-1.525,1.841-2.255,2.716c-1.534,1.842-3.067,3.687-4.606,5.524
		c-0.408,0.487-0.18,1.05-0.19,1.578c-0.004,0.203,0.267,0.113,0.407,0.113c2.293,0.006,4.584,0.005,6.875,0.005
		c0.727,0,1.453-0.009,2.178,0.005c0.253,0.006,0.324-0.072,0.336-0.327c0.051-1.316,0.061-1.315-1.227-1.315
		c-1.984,0-3.97,0-5.959,0c-0.047-0.209,0.119-0.297,0.213-0.409c2.168-2.602,4.332-5.207,6.519-7.792
		c0.421-0.498,0.212-1.042,0.242-1.565c0.012-0.206-0.222-0.136-0.351-0.136c-1.098-0.006-2.192-0.004-3.289-0.004
		c-1.793,0-3.584,0.012-5.375-0.009c-0.363-0.004-0.459,0.094-0.453,0.456c0.018,1.16,0,1.16,1.142,1.16
		C368.512,70.298,370.398,70.298,372.42,70.298z"/>
	<path fill="#FFFFFF" d="M361.857,70.298c-0.748,0.9-1.412,1.704-2.082,2.507c-1.559,1.868-3.102,3.75-4.688,5.595
		c-0.464,0.54-0.273,1.123-0.296,1.696c-0.009,0.214,0.222,0.135,0.349,0.136c1.08,0.006,2.162,0.004,3.242,0.004
		c1.936,0,3.871-0.006,5.807,0.005c0.3,0.003,0.42-0.054,0.42-0.392c0.005-1.252,0.019-1.252-1.245-1.252c-1.982,0-3.966,0-5.95,0
		c-0.04-0.216,0.126-0.301,0.221-0.414c2.156-2.59,4.307-5.183,6.485-7.754c0.433-0.509,0.254-1.06,0.272-1.602
		c0.006-0.196-0.225-0.134-0.354-0.135c-1.001-0.005-2.001-0.003-3-0.003c-1.872,0-3.743,0.013-5.614-0.012
		c-0.414-0.006-0.507,0.116-0.498,0.51c0.025,1.109,0.008,1.109,1.143,1.109C357.952,70.298,359.837,70.298,361.857,70.298z"/>
	<path fill="#FFFFFF" d="M231.57,71.508c0-0.607-0.02-1.189,0.008-1.769c0.016-0.301-0.117-0.423-0.367-0.53
		c-1.345-0.582-2.74-0.853-4.209-0.775c-1.533,0.077-2.773,0.713-3.859,1.781c-0.836,0.824-1.275,1.832-1.396,2.93
		c-0.117,1.093-0.083,2.213,0.179,3.311c0.318,1.342,1.061,2.405,2.172,3.157c0.738,0.498,1.631,0.723,2.532,0.819
		c1.626,0.178,3.168-0.12,4.647-0.794c0.193-0.088,0.311-0.182,0.299-0.425c-0.021-0.499-0.014-1-0.002-1.499
		c0.007-0.323-0.079-0.371-0.348-0.185c-0.826,0.574-1.715,1.005-2.72,1.189c-2.649,0.485-4.504-0.956-4.661-3.652
		c-0.043-0.725-0.025-1.447,0.151-2.16c0.491-1.984,2.094-3.065,4.118-2.786c1.092,0.148,2.074,0.564,2.986,1.167
		C231.23,71.371,231.337,71.508,231.57,71.508z"/>
	<path fill="#FFFFFF" d="M312.036,71.602c0-0.733-0.011-1.359,0.007-1.984c0.006-0.235-0.143-0.3-0.305-0.375
		c-1.114-0.518-2.284-0.78-3.514-0.823c-0.947-0.035-1.893,0.065-2.74,0.439c-0.825,0.365-1.561,0.931-2.139,1.669
		c-0.731,0.93-1.07,1.956-1.191,3.142c-0.074,0.711-0.065,1.415,0.053,2.073c0.182,1.012,0.521,2.008,1.216,2.835
		c0.687,0.817,1.546,1.363,2.563,1.635c2.012,0.535,3.951,0.265,5.824-0.606c0.147-0.069,0.232-0.145,0.23-0.317
		c-0.008-0.625-0.003-1.25-0.003-1.972c-0.583,0.37-1.095,0.698-1.642,0.957c-1.59,0.752-4.258,0.964-5.457-1.041
		c-0.691-1.155-0.737-2.427-0.592-3.721c0.115-1.003,0.445-1.917,1.25-2.585c1.031-0.857,2.219-1.001,3.491-0.714
		c0.873,0.198,1.677,0.553,2.421,1.043C311.656,71.349,311.801,71.444,312.036,71.602z"/>
	<path fill="#FFFFFF" d="M242.482,77.306c-0.584,0.389-1.08,0.715-1.619,0.961c-0.975,0.449-1.996,0.651-3.057,0.498
		c-1.754-0.256-2.854-1.511-3.021-3.433c-0.073-0.828-0.078-1.662,0.126-2.48c0.555-2.226,2.459-3.133,4.594-2.644
		c0.544,0.123,1.064,0.282,1.559,0.648c0.326,0.24,0.82,0.356,1.209,0.602c0.213,0.133,0.205-0.044,0.205-0.167
		c0.006-0.597-0.012-1.192,0.008-1.788c0.007-0.185-0.113-0.219-0.213-0.259c-0.599-0.245-1.211-0.445-1.836-0.608
		c-1.268-0.331-2.535-0.294-3.785,0.023c-2.307,0.587-3.883,2.622-4.008,5.083c-0.056,1.08-0.066,2.186,0.301,3.188
		c0.631,1.718,1.845,2.897,3.689,3.328c1.94,0.452,3.797,0.206,5.586-0.648c0.243-0.117,0.311-0.242,0.277-0.54
		C242.438,78.519,242.482,77.955,242.482,77.306z"/>
	<path fill="#FFFFFF" d="M283.24,73.759c0-0.968,0.02-1.936-0.01-2.901c-0.014-0.426,0.076-0.588,0.547-0.569
		c1.078,0.038,2.16-0.008,3.24,0.021c0.375,0.01,0.446-0.107,0.442-0.458c-0.017-1.16-0.002-1.16-1.138-1.16
		c-0.903,0-1.809-0.012-2.711,0.006c-0.303,0.007-0.383-0.096-0.377-0.387c0.017-0.854,0.004-1.709,0.004-2.563
		c0-0.311,0.019-0.566-0.465-0.413c-0.322,0.102-0.732,0.104-1.051-0.005c-0.512-0.176-0.543,0.047-0.537,0.439
		c0.012,0.838-0.009,1.678,0.01,2.517c0.008,0.312-0.078,0.452-0.405,0.41c-0.144-0.019-0.292,0.018-0.435-0.008
		c-0.492-0.083-0.654,0.17-0.646,0.608c0.024,1.229-0.199,0.994,0.964,0.992c0.434-0.002,0.526,0.115,0.527,0.534
		c0.006,2.146-0.085,4.29,0.048,6.434c0.097,1.548,0.838,2.559,2.181,2.985c0.827,0.266,1.678,0.264,2.531,0.14
		c0.046-0.008,0.094-0.038,0.139-0.035c0.453,0.023,1.02,0.016,1.271-0.257c0.266-0.287,0.066-0.861,0.078-1.311
		c0.01-0.36-0.213-0.507-0.534-0.33c-0.771,0.418-1.581,0.368-2.386,0.21c-0.713-0.14-1.219-0.853-1.238-1.705
		c-0.025-1.064-0.007-2.129-0.007-3.192C283.27,73.759,283.255,73.759,283.24,73.759z"/>
	<path fill="#FFFFFF" d="M289.583,74.247c0,1.191-0.062,2.389,0.028,3.572c0.037,0.504,0.337,1.008,0.668,1.444
		c0.619,0.821,1.509,1.065,2.457,1.163c0.906,0.095,1.8-0.051,2.691-0.203c0.285-0.05,0.401-0.183,0.37-0.481
		c-0.026-0.271-0.005-0.549-0.006-0.823c-0.002-0.581-0.042-0.631-0.587-0.44c-0.641,0.225-1.275,0.279-1.956,0.259
		c-0.978-0.029-1.614-1.002-1.626-1.755c-0.034-2.128-0.021-4.256-0.039-6.384c-0.002-0.282,0.128-0.306,0.354-0.305
		c1.146,0.009,2.289-0.008,3.436,0.013c0.332,0.007,0.434-0.076,0.43-0.422c-0.014-1.194,0.004-1.194-1.199-1.194
		c-0.871,0-1.742-0.015-2.612,0.007c-0.314,0.008-0.417-0.077-0.409-0.399c0.021-0.854-0.003-1.708,0.016-2.563
		c0.004-0.295-0.084-0.405-0.385-0.382c-0.539,0.042-1.234-0.221-1.576,0.108c-0.302,0.287-0.07,0.979-0.084,1.494
		c-0.011,0.467-0.014,0.936,0.002,1.401c0.01,0.253-0.078,0.365-0.332,0.337c-0.016-0.002-0.033-0.002-0.048-0.001
		c-0.334,0.025-0.862-0.146-0.959,0.084c-0.161,0.387-0.057,0.883-0.063,1.333c-0.004,0.21,0.158,0.155,0.273,0.163
		c1.124,0.078,1.124,0.078,1.124,1.22c0,0.919,0,1.839,0,2.757C289.563,74.247,289.572,74.247,289.583,74.247z"/>
	<path fill="#FFFFFF" d="M299.656,74.443c0-1.758-0.016-3.516,0.012-5.271c0.007-0.421-0.124-0.523-0.512-0.489
		c-0.385,0.034-0.774,0.023-1.16,0.001c-0.295-0.019-0.391,0.075-0.383,0.378c0.021,0.822,0.007,1.645,0.007,2.467
		c0,2.726,0.013,5.449-0.013,8.176c-0.004,0.467,0.146,0.577,0.568,0.539c0.352-0.033,0.713-0.033,1.063-0.002
		c0.35,0.03,0.428-0.096,0.426-0.43C299.646,78.022,299.657,76.233,299.656,74.443z"/>
	<path fill="#FFFFFF" d="M390.557,78.908c-0.399,0.988,0.197,1.158,0.875,1.313c0.756,0.178,1.504,0.185,2.223-0.086
		c0.685-0.258,1.104-0.772,1.096-1.534c-0.009-0.751-0.456-1.178-1.148-1.363c-0.492-0.129-0.996-0.213-1.484-0.348
		c-0.348-0.099-0.672-0.281-0.67-0.703c0.002-0.455,0.326-0.62,0.718-0.734c0.827-0.242,1.517,0.149,2.229,0.445
		c0.396-0.806,0.369-0.806-0.506-1.068c-0.914-0.275-1.769-0.247-2.656,0.146c-0.692,0.31-0.979,0.938-0.926,1.501
		c0.055,0.592,0.531,1.123,1.278,1.226c0.53,0.075,1.048,0.232,1.569,0.354c0.41,0.096,0.691,0.307,0.64,0.778
		c-0.052,0.457-0.376,0.628-0.771,0.691C392.129,79.671,391.328,79.401,390.557,78.908z"/>
	<path fill="#FFFFFF" d="M298.609,64.738c-1.107,0-1.107,0-1.107,1.084c0,0.937,0,0.943,0.928,0.936
		c0.432-0.005,0.988,0.18,1.26-0.077c0.277-0.263,0.078-0.826,0.088-1.256c0.016-0.687,0.005-0.688-0.682-0.688
		C298.934,64.738,298.771,64.738,298.609,64.738z"/>
	<path fill="#FFFFFF" d="M396.877,75.457c-0.111-0.386-0.063-0.785-0.611-0.729c-0.557,0.058-0.367,0.44-0.373,0.711
		c-0.018,1.396-0.008,2.789-0.008,4.186c0,0.289-0.072,0.58,0.414,0.582c0.484,0.004,0.501-0.245,0.496-0.604
		c-0.018-0.724-0.007-1.45-0.007-2.174c0-1.352,0.442-1.772,1.824-1.784c0.219-0.001,0.575,0.242,0.653-0.189
		c0.067-0.357,0.063-0.703-0.471-0.713C398.091,74.73,397.498,75.017,396.877,75.457z"/>
	<path fill="#FFFFFF" d="M400.898,76.379c0-1.073-0.002-2.146,0-3.219c0-0.303,0.047-0.575-0.428-0.578
		c-0.451-0.002-0.527,0.178-0.525,0.571c0.015,2.177,0.013,4.348,0,6.521c-0.002,0.357,0.068,0.529,0.479,0.532
		c0.412,0.004,0.484-0.165,0.479-0.525C400.889,78.583,400.898,77.479,400.898,76.379z"/>
</g>
<g>
	<path fill="#9CFFFE" d="M0.002,88.108c2.866,0.504,6.481,1.371,9.352,1.85c2.6,0.436,5.334,0.899,7.99,1.34
		c-0.057-0.978-0.136-1.907-0.161-2.843c-0.132-5.14-0.063-10.301,0.505-15.412c0.465-4.188,1.123-8.341,1.988-12.459
		c1.484-7.058,3.514-13.953,6.119-20.67c0.806-2.076,0.248-1.744,2.529-1.442c0.972,0.129,0.983,0.179,0.835,1.166
		c-0.351,2.336-0.529,4.691-0.614,7.047c-0.254,7.088,0.054,14.147,1.178,21.165c1.528,9.546,4.367,18.634,9.006,27.115
		c0.272,0.497,0.605,0.729,1.127,0.842c5.961,1.257,11.967,2.271,17.95,3.399c0.418,0.079,1.407-0.138,1.321-0.579
		c-0.967-4.977-1.729-9.804-0.631-14.732c1.635-7.341,5.213-13.61,10.305-19.024c4.059-4.317,8.774-7.763,13.903-10.645
		c0.471-0.265,0.837-0.586,1.115-1.058c0.889-1.517,1.811-3.013,2.709-4.522c0.602-1.013,0.593-1.018,1.763-0.815
		c0.067,0.012,0.133,0.032,0.2,0.043c0.838,0.138,0.619,0.102,0.219,0.89c-0.463,0.91-0.819,1.861-0.958,2.958
		c0.182-0.063,0.448-0.08,0.548-0.125c5.66-2.543,11.554-4.293,17.647-5.362c2.737-0.479,5.491-0.818,8.266-1.001
		c3.181-0.209,6.36-0.414,9.527,0.147c0.523,0.092,0.798-0.04,1.069-0.525c4.358-7.789,9.184-15.248,15.156-21.889
		c0.747-0.83,0.73-0.83-0.145-1.536c-4.334-3.5-9.076-6.325-14.07-8.731c-7.594-3.66-15.525-6.313-23.721-8.179
		c-0.584-0.134-1.124-0.12-1.704,0.117c-4.754,1.938-9.059,4.643-13.097,7.81c-5.404,4.237-10.204,9.113-14.678,14.332
		c-5.898,6.879-11.151,13.734-15.85,21.505c-0.58,0.96-0.571,0.958-1.63,0.625c-0.107-0.033-0.212-0.073-0.319-0.108
		c-0.378-0.126,0,0-0.444-0.278c0.409-2.829,0.802-5.661,1.154-8.496c0.373-3.021,0.748-6.042,1.026-9.071
		c0.351-3.808,0.646-7.621,0.872-11.438c0.362-6.114,0.556-12.229,0.531-18.354c-0.002-0.568-0.175-0.688-0.688-0.655
		c-2.39,0.155-4.781,0.282-7.172,0.413c-3.723,0.206-7.446,0.396-11.168,0.604c-3.723,0.208-7.444,0.431-11.167,0.639
		c-2.819,0.156-5.64,0.305-8.46,0.45c-0.58,0.03-1.085,0.169-1.527,0.604c-0.614,0.605-1.303,1.135-1.934,1.724
		C9.279,11.008,4.107,18.046,0.617,26.311C0.471,26.655,0.404,27.042,0,27.488L0.002,88.108z"/>
</g>
<g>
	<path fill="#155E5C" d="M68.245,117.303c0.993,1.117,1.987,1.989,2.998,2.84c6.851,5.772,14.573,9.999,23.026,12.921
		c5.162,1.785,10.461,2.972,15.88,3.622c3.912,0.471,7.84,0.603,11.778,0.509c6.476-0.151,12.886-0.805,19.235-2.136
		c7.079-1.482,13.388-4.69,19.463-8.445c4.875-3.011,9.386-6.495,12.875-11.087c3.271-4.304,6.235-8.811,7.626-14.15
		c1.079-4.141,1.553-8.342,1.262-12.604c-0.787-11.542-6.085-20.813-14.562-28.415c-5.814-5.211-12.576-8.749-20.049-10.949
		c-0.509-0.149-0.588-0.393-0.587-0.853c0.011-15.869,0.011-31.739,0.007-47.608c0-1.082,0.154-0.929-0.934-0.929
		C97.784,0.013,49.305,0.015,0.826,0C0.185,0-0.001,0.149,0,0.812C0.024,9.22,0.015,17.63,0.015,26.039c0,0.366,0,0.733,0,1.266
		c0.404-0.44,0.471-0.821,0.617-1.161c3.491-8.146,8.663-15.082,15.156-21.065c0.631-0.581,1.32-1.102,1.934-1.699
		c0.442-0.427,0.947-0.564,1.527-0.594c2.82-0.145,5.641-0.289,8.46-0.444c3.723-0.205,7.444-0.424,11.167-0.629
		c3.722-0.204,7.446-0.395,11.168-0.595c2.391-0.13,4.783-0.256,7.172-0.408c0.514-0.033,0.687,0.086,0.688,0.646
		c0.024,6.036-0.169,12.064-0.531,18.09c-0.227,3.764-0.521,7.521-0.872,11.273c-0.279,2.986-0.653,5.964-1.026,8.941
		c-0.352,2.795-0.745,5.585-1.154,8.374c-0.063,0.432,0.051,0.641,0.429,0.766c0.107,0.035,0.212,0.076,0.319,0.109
		c1.059,0.327,1.05,0.32,1.63-0.625c4.699-7.659,9.967-14.898,15.865-21.679c4.475-5.144,9.274-9.95,14.678-14.126
		c4.038-3.121,8.343-5.788,13.097-7.697c0.58-0.232,1.12-0.247,1.704-0.115c8.196,1.84,16.127,4.453,23.721,8.061
		c4.994,2.372,9.736,5.155,14.07,8.605c0.875,0.695,0.892,0.695,0.145,1.514c-5.973,6.545-10.798,13.896-15.156,21.573
		c-0.271,0.478-0.545,0.607-1.069,0.517c-3.167-0.552-6.346-0.351-9.527-0.145c-2.775,0.18-5.528,0.515-8.266,0.986
		c-6.093,1.054-11.988,2.778-17.647,5.285c-0.1,0.044-0.206,0.072-0.387,0.134c0.138-1.08,0.548-1.996,1.011-2.894
		c0.4-0.776,0.406-0.773-0.433-0.909c-0.067-0.011-0.133-0.031-0.2-0.043c-1.169-0.199-1.161-0.194-1.763,0.804
		c-0.898,1.488-1.82,2.964-2.709,4.457c-0.277,0.467-0.644,0.783-1.115,1.043c-5.129,2.841-9.844,6.236-13.903,10.491
		c-5.092,5.336-8.67,11.518-10.305,18.752c-1.098,4.857-1.261,9.745-0.294,14.647c0.086,0.438,0.023,0.52-0.396,0.441
		c-5.983-1.112-11.989-2.111-17.95-3.35c-0.521-0.109-0.855-0.34-1.127-0.83c-4.639-8.357-7.478-17.315-9.006-26.724
		c-1.124-6.916-1.433-13.874-1.178-20.86c0.084-2.322,0.263-4.643,0.614-6.945c0.148-0.973,0.137-1.021-0.835-1.148
		c-2.281-0.297-1.723-0.625-2.529,1.422c-2.604,6.62-4.635,13.417-6.119,20.372c-0.865,4.059-1.522,8.153-1.988,12.281
		c-0.568,5.039-0.772,10.088-0.64,15.151c0.025,0.922,0.104,1.841,0.161,2.804c-2.655-0.435-5.255-0.854-7.855-1.284
		c-2.871-0.473-5.743-0.936-8.609-1.432c-0.6-0.105-0.759,0.04-0.757,0.664c0.022,7.234,0.023,14.469,0,21.701
		c-0.002,0.604,0.152,0.74,0.747,0.74c22.092-0.019,44.183-0.016,66.275-0.023c0.25,0,0.609,0.156,0.732-0.122
		c0.109-0.242-0.159-0.49-0.304-0.716c-2.819-4.367-4.708-9.095-5.427-14.251c-0.881-6.327,0.013-12.428,2.602-18.266
		c2.574-5.808,6.435-10.651,11.244-14.753c7.661-6.531,16.558-10.547,26.313-12.755c7.757-1.757,15.601-2.195,23.517-1.401
		c9.282,0.931,18.074,3.465,26.231,8.038c6.985,3.916,12.921,9.008,17.296,15.789c3.024,4.685,4.939,9.788,5.491,15.348
		c0.796,8.013-1.168,15.369-5.499,22.112c-7.195,11.206-17.408,18.253-30.169,21.737c-7.881,2.152-15.912,2.767-24.048,2.211
		c-6.749-0.461-13.316-1.777-19.754-3.863c-7.799-2.526-14.707-6.53-20.737-12.067c-0.173-0.156-0.342-0.271-0.592-0.27
		C72.088,117.305,70.257,117.303,68.245,117.303z"/>
	<path fill="#155E5C" d="M131.848,77.313c0-8.204-0.007-16.409,0.014-24.612c0.002-0.707-0.15-0.981-0.926-1.1
		c-6.984-1.055-13.984-1.348-21.02-0.637c-3.491,0.353-6.93,0.956-10.309,1.916c-0.641,0.182-0.885,0.422-0.885,1.134
		c0.024,16.025,0.024,32.048,0.004,48.073c0,0.625,0.184,0.731,0.758,0.73c10.535-0.018,21.07-0.019,31.605,0.001
		c0.606,0.001,0.749-0.165,0.748-0.757c-0.021-8.25-0.014-16.499-0.014-24.749C131.833,77.313,131.841,77.313,131.848,77.313z"/>
	<path fill="#155E5C" d="M95.065,54.1c-10.053,4.117-18.934,9.741-25.246,18.813c-1.15,1.652-2.12,3.41-2.927,5.258
		c-2.271,5.199-2.727,10.635-2.1,16.205c0.31,2.749,0.983,5.41,2.042,7.975c0.186,0.453,0.423,0.588,0.899,0.584
		c3.595-0.02,7.19-0.021,10.785,0.002c0.471,0.004,0.666-0.139,0.81-0.577c3.989-12.128,7.992-24.25,11.988-36.373
		c1.491-4.524,2.7-8.233,3.642-11.123C95.027,54.653,95.16,54.453,95.065,54.1z"/>
</g>
<g enable-background="new    ">
	<path fill="#FFFFFF" d="M199.578,92.212h2.006v7.993h-2.006v-0.845c-0.391,0.372-0.784,0.641-1.178,0.805
		c-0.394,0.164-0.821,0.246-1.28,0.246c-1.032,0-1.925-0.4-2.679-1.201s-1.13-1.797-1.13-2.986c0-1.234,0.364-2.246,1.093-3.034
		c0.729-0.789,1.614-1.184,2.657-1.184c0.479,0,0.929,0.091,1.35,0.272c0.421,0.181,0.81,0.453,1.167,0.815V92.212z M197.469,93.858
		c-0.62,0-1.135,0.22-1.545,0.657c-0.41,0.438-0.615,1.001-0.615,1.687c0,0.69,0.208,1.259,0.625,1.704
		c0.417,0.446,0.931,0.669,1.542,0.669c0.63,0,1.152-0.219,1.567-0.657s0.623-1.013,0.623-1.724c0-0.695-0.208-1.258-0.623-1.689
		C198.628,94.073,198.104,93.858,197.469,93.858z"/>
	<path fill="#FFFFFF" d="M207.584,92.212h2.006v0.918c0.342-0.377,0.724-0.658,1.143-0.845c0.419-0.186,0.876-0.279,1.371-0.279
		c0.5,0,0.951,0.123,1.354,0.368c0.401,0.244,0.725,0.602,0.97,1.072c0.318-0.471,0.71-0.828,1.173-1.072
		c0.463-0.245,0.969-0.368,1.518-0.368c0.568,0,1.068,0.133,1.5,0.397c0.432,0.264,0.742,0.609,0.93,1.035
		c0.189,0.427,0.283,1.119,0.283,2.079v4.688h-2.02V96.15c0-0.905-0.113-1.52-0.338-1.84c-0.226-0.321-0.564-0.481-1.014-0.481
		c-0.344,0-0.65,0.098-0.923,0.294c-0.271,0.196-0.474,0.467-0.606,0.812c-0.132,0.346-0.197,0.9-0.197,1.664v3.607h-2.021v-3.872
		c0-0.715-0.053-1.232-0.158-1.554c-0.105-0.32-0.264-0.56-0.475-0.716c-0.211-0.157-0.467-0.235-0.766-0.235
		c-0.334,0-0.637,0.1-0.91,0.298c-0.271,0.198-0.476,0.477-0.611,0.834c-0.135,0.357-0.201,0.921-0.201,1.689v3.556h-2.006V92.212z"
		/>
	<path fill="#FFFFFF" d="M227.719,89.126v3.968c0.362-0.362,0.754-0.635,1.176-0.815c0.421-0.182,0.871-0.272,1.352-0.272
		c1.043,0,1.93,0.395,2.659,1.184c0.729,0.788,1.095,1.8,1.095,3.034c0,1.189-0.377,2.186-1.131,2.986
		c-0.755,0.801-1.648,1.201-2.682,1.201c-0.461,0-0.889-0.082-1.286-0.246c-0.396-0.164-0.791-0.433-1.183-0.805v0.845h-1.991
		V89.126H227.719z M229.827,93.858c-0.632,0-1.155,0.216-1.572,0.646c-0.417,0.432-0.624,0.994-0.624,1.689
		c0,0.711,0.207,1.285,0.624,1.724s0.94,0.657,1.572,0.657c0.612,0,1.128-0.223,1.546-0.669c0.42-0.445,0.629-1.014,0.629-1.704
		c0-0.686-0.206-1.248-0.617-1.687C230.973,94.077,230.454,93.858,229.827,93.858z"/>
	<path fill="#FFFFFF" d="M240.43,88.921c0.352,0,0.653,0.127,0.904,0.382c0.252,0.255,0.378,0.563,0.378,0.926
		c0,0.357-0.124,0.662-0.374,0.914c-0.248,0.253-0.547,0.379-0.893,0.379c-0.357,0-0.661-0.129-0.912-0.386
		c-0.252-0.257-0.378-0.569-0.378-0.937c0-0.353,0.124-0.654,0.374-0.904C239.777,89.046,240.078,88.921,240.43,88.921z
		 M239.428,92.212h2.005v7.993h-2.005V92.212z"/>
	<path fill="#FFFFFF" d="M255.25,96.789h-6.443c0.094,0.568,0.342,1.02,0.746,1.355c0.404,0.335,0.919,0.503,1.546,0.503
		c0.749,0,1.394-0.262,1.933-0.786l1.689,0.794c-0.422,0.598-0.926,1.039-1.514,1.326c-0.588,0.286-1.285,0.43-2.094,0.43
		c-1.254,0-2.275-0.396-3.063-1.187s-1.183-1.782-1.183-2.972c0-1.22,0.393-2.232,1.18-3.038c0.785-0.806,1.771-1.209,2.957-1.209
		c1.258,0,2.281,0.403,3.07,1.209s1.183,1.87,1.183,3.192L255.25,96.789z M253.244,95.209c-0.133-0.445-0.395-0.808-0.783-1.087
		c-0.391-0.279-0.844-0.419-1.358-0.419c-0.56,0-1.05,0.157-1.472,0.471c-0.266,0.195-0.51,0.541-0.736,1.035H253.244z"/>
	<path fill="#FFFFFF" d="M260.86,92.212h2.006v0.819c0.454-0.384,0.866-0.65,1.235-0.8c0.369-0.15,0.748-0.226,1.135-0.226
		c0.791,0,1.464,0.277,2.017,0.83c0.465,0.471,0.697,1.166,0.697,2.087v5.282h-1.983v-3.5c0-0.954-0.043-1.588-0.129-1.9
		c-0.086-0.313-0.234-0.552-0.447-0.716s-0.475-0.246-0.787-0.246c-0.406,0-0.754,0.136-1.045,0.407s-0.492,0.647-0.604,1.127
		c-0.059,0.249-0.088,0.79-0.088,1.621v3.207h-2.006V92.212z"/>
	<path fill="#FFFFFF" d="M274.119,89.266h2.006v2.946h1.189v1.727h-1.189v6.267h-2.006v-6.267h-1.029v-1.727h1.029V89.266z"/>
	<path fill="#FFFFFF" d="M283.157,88.921c0.352,0,0.653,0.127,0.904,0.382c0.252,0.255,0.378,0.563,0.378,0.926
		c0,0.357-0.125,0.662-0.374,0.914c-0.249,0.253-0.547,0.379-0.894,0.379c-0.356,0-0.66-0.129-0.912-0.386s-0.377-0.569-0.377-0.937
		c0-0.353,0.124-0.654,0.373-0.904C282.505,89.046,282.805,88.921,283.157,88.921z M282.154,92.212h2.006v7.993h-2.006V92.212z"/>
	<path fill="#FFFFFF" d="M310.117,92.006c0.754,0,1.463,0.189,2.127,0.566c0.663,0.377,1.181,0.889,1.553,1.535
		c0.373,0.646,0.559,1.345,0.559,2.094c0,0.754-0.188,1.46-0.563,2.116c-0.374,0.656-0.885,1.169-1.531,1.539
		c-0.646,0.369-1.359,0.555-2.138,0.555c-1.146,0-2.124-0.408-2.935-1.224s-1.217-1.806-1.217-2.972c0-1.249,0.459-2.29,1.374-3.122
		C308.15,92.369,309.073,92.006,310.117,92.006z M310.149,93.895c-0.623,0-1.142,0.217-1.556,0.65
		c-0.415,0.433-0.623,0.987-0.623,1.664c0,0.695,0.205,1.259,0.615,1.689s0.928,0.646,1.557,0.646c0.627,0,1.15-0.218,1.567-0.654
		c0.417-0.436,0.626-0.996,0.626-1.682c0-0.687-0.205-1.243-0.615-1.672S310.787,93.895,310.149,93.895z"/>
	<path fill="#FFFFFF" d="M319.025,92.212h0.713c0.006-1.048,0.022-1.668,0.052-1.858c0.054-0.441,0.239-0.79,0.555-1.047
		c0.315-0.258,0.763-0.386,1.341-0.386c0.416,0,0.887,0.096,1.41,0.286v1.528c-0.289-0.083-0.526-0.125-0.713-0.125
		c-0.234,0-0.406,0.049-0.514,0.146c-0.078,0.074-0.117,0.226-0.117,0.456l-0.008,0.999h1.271v1.697h-1.271v6.296h-2.006v-6.296
		h-0.713V92.212z"/>
	<path fill="#FFFFFF" d="M328.42,89.266h2.006v2.946h1.19v1.727h-1.19v6.267h-2.006v-6.267h-1.028v-1.727h1.028V89.266z"/>
	<path fill="#FFFFFF" d="M342.575,92.212h2.006v7.993h-2.006v-0.845c-0.392,0.372-0.784,0.641-1.178,0.805s-0.821,0.246-1.28,0.246
		c-1.032,0-1.926-0.4-2.679-1.201s-1.13-1.797-1.13-2.986c0-1.234,0.364-2.246,1.094-3.034c0.729-0.789,1.613-1.184,2.656-1.184
		c0.479,0,0.93,0.091,1.35,0.272c0.421,0.181,0.811,0.453,1.167,0.815V92.212z M340.467,93.858c-0.619,0-1.135,0.22-1.545,0.657
		c-0.41,0.438-0.615,1.001-0.615,1.687c0,0.69,0.209,1.259,0.626,1.704c0.417,0.446,0.931,0.669,1.542,0.669
		c0.629,0,1.151-0.219,1.566-0.657s0.623-1.013,0.623-1.724c0-0.695-0.208-1.258-0.623-1.689
		C341.626,94.073,341.102,93.858,340.467,93.858z"/>
	<path fill="#FFFFFF" d="M350.375,89.126h2.006v11.079h-2.006V89.126z"/>
	<path fill="#FFFFFF" d="M358.176,92.212h2.006v0.918c0.342-0.377,0.724-0.658,1.143-0.845c0.419-0.186,0.876-0.279,1.371-0.279
		c0.5,0,0.951,0.123,1.354,0.368c0.401,0.244,0.725,0.602,0.97,1.072c0.318-0.471,0.71-0.828,1.173-1.072
		c0.463-0.245,0.969-0.368,1.518-0.368c0.568,0,1.068,0.133,1.5,0.397c0.432,0.264,0.742,0.609,0.93,1.035
		c0.189,0.427,0.283,1.119,0.283,2.079v4.688h-2.02V96.15c0-0.905-0.113-1.52-0.338-1.84c-0.226-0.321-0.564-0.481-1.014-0.481
		c-0.344,0-0.65,0.098-0.923,0.294c-0.271,0.196-0.474,0.467-0.606,0.812c-0.132,0.346-0.197,0.9-0.197,1.664v3.607h-2.021v-3.872
		c0-0.715-0.053-1.232-0.158-1.554c-0.105-0.32-0.264-0.56-0.475-0.716c-0.211-0.157-0.467-0.235-0.766-0.235
		c-0.334,0-0.637,0.1-0.91,0.298c-0.271,0.198-0.476,0.477-0.611,0.834c-0.135,0.357-0.201,0.921-0.201,1.689v3.556h-2.006V92.212z"
		/>
	<path fill="#FFFFFF" d="M377.102,88.921c0.352,0,0.653,0.127,0.904,0.382c0.252,0.255,0.378,0.563,0.378,0.926
		c0,0.357-0.124,0.662-0.374,0.914c-0.248,0.253-0.547,0.379-0.893,0.379c-0.357,0-0.661-0.129-0.912-0.386
		c-0.252-0.257-0.378-0.569-0.378-0.937c0-0.353,0.124-0.654,0.374-0.904C376.449,89.046,376.75,88.921,377.102,88.921z
		 M376.1,92.212h2.005v7.993H376.1V92.212z"/>
	<path fill="#FFFFFF" d="M391.738,93.828l-1.67,0.918c-0.314-0.327-0.624-0.556-0.931-0.683c-0.307-0.128-0.665-0.191-1.077-0.191
		c-0.75,0-1.357,0.224-1.82,0.672c-0.464,0.447-0.695,1.021-0.695,1.72c0,0.68,0.223,1.234,0.669,1.665s1.032,0.646,1.759,0.646
		c0.896,0,1.596-0.306,2.096-0.918l1.582,1.082c-0.857,1.115-2.067,1.673-3.63,1.673c-1.405,0-2.507-0.417-3.302-1.249
		c-0.797-0.833-1.194-1.808-1.194-2.924c0-0.774,0.193-1.486,0.581-2.139c0.387-0.651,0.926-1.163,1.619-1.535
		s1.469-0.559,2.325-0.559c0.794,0,1.507,0.158,2.138,0.475C390.819,92.796,391.336,93.245,391.738,93.828z"/>
	<path fill="#FFFFFF" d="M398.314,88.921c0.352,0,0.653,0.127,0.904,0.382c0.252,0.255,0.378,0.563,0.378,0.926
		c0,0.357-0.124,0.662-0.374,0.914c-0.248,0.253-0.547,0.379-0.893,0.379c-0.357,0-0.661-0.129-0.912-0.386
		c-0.252-0.257-0.378-0.569-0.378-0.937c0-0.353,0.124-0.654,0.374-0.904C397.662,89.046,397.963,88.921,398.314,88.921z
		 M397.313,92.212h2.005v7.993h-2.005V92.212z"/>
</g>
</svg>
