<svg xmlns="http://www.w3.org/2000/svg" width="402" height="137.223" viewBox="0 0 402 137.223"><path fill="#155E5C" d="M332.98 74.34c-.685-2.91-1.372-5.82-2.04-8.735-.067-.308-.188-.377-.48-.375-1.58.014-3.16.014-4.74 0-.304-.003-.413.06-.41.393.01 4.742.01 9.482-.003 14.227 0 .36.123.417.44.41.79-.022 1.583-.027 2.373 0 .374.015.48-.087.478-.473-.016-3.808-.01-7.613-.01-11.42 0-.205 0-.41.038-.62.235.862.422 1.73.635 2.592.23.937.508 1.867.73 2.81.174.742.284 1.502.467 2.244.174.707.45 1.394.592 2.106.166.85.53 1.657.56 2.538.008.255.206.208.353.21.645.008 1.29-.005 1.936.01.226.005.29-.09.347-.294.527-1.938 1.068-3.87 1.607-5.805.576-2.078 1.155-4.153 1.83-6.226v.526c0 3.773.008 7.55-.01 11.32 0 .378.09.494.475.48.77-.032 1.548-.02 2.32-.004.278.006.35-.082.35-.354-.01-4.773-.01-9.55 0-14.32 0-.275-.074-.355-.353-.354-1.58.013-3.16.006-4.742.004-.28 0-.42.064-.43.413-.016.618-.35 1.17-.49 1.768-.197.82-.328 1.665-.593 2.466-.276.842-.478 1.703-.694 2.558-.164.63-.257 1.276-.54 1.903zM195.16 67.705c.127.488.315.973.37 1.47.12 1.102.563 2.115.796 3.185.124.57.15 1.178.344 1.71.35.968.575 1.962.77 2.956.193.97.573 1.88.72 2.854.046.313.187.387.48.376.562-.02 1.128-.023 1.692.002.257.01.372-.088.434-.316.908-3.294 1.817-6.588 2.73-9.88.193-.703.398-1.405.688-2.094v.552c0 3.743.006 7.484-.01 11.23 0 .382.07.53.492.512.77-.037 1.55-.02 2.322-.004.267.004.363-.065.36-.352-.008-4.774-.01-9.55 0-14.322 0-.283-.092-.354-.362-.354-1.563.012-3.13.014-4.694 0-.287-.004-.38.108-.446.368-.527 2.07-1.07 4.14-1.604 6.21-.218.838-.434 1.678-.74 2.528-.148-.614-.3-1.23-.445-1.847-.53-2.27-1.063-4.54-1.577-6.814-.077-.344-.212-.457-.57-.452-1.55.022-3.1.02-4.647.002-.344-.004-.425.1-.424.433.01 4.726.01 9.45-.002 14.178 0 .352.11.43.437.42.79-.022 1.582-.03 2.37 0 .37.016.45-.1.45-.454-.014-3.855-.008-7.71-.008-11.565v-.52c.023-.006.048-.01.073-.015z"/><path fill="#FFF" d="M350.922 79.012c.02.134.033.164.035.197.02 1.024.02 1.024 1.07 1.024.957 0 .957 0 .957-.946 0-2.29-.012-4.58.006-6.868.007-.998-.204-1.958-.855-2.688-.533-.598-1.304-.947-2.13-1.108-1.688-.327-3.366-.268-5.04.063-.324.064-.652.046-.982.126-.342.083-.41.242-.346.49.11.41.092.82.08 1.232-.01.324.092.393.393.28 1.017-.374 2.067-.6 3.146-.687.712-.06 1.42-.005 2.113.152 1.02.23 1.59.97 1.594 1.99 0 .24-.055.337-.315.343-1.093.025-2.18.182-3.275.194-.82.013-1.586.347-2.35.645-1.593.62-2.32 1.82-2.395 3.5-.095 2.13 2.01 3.462 3.466 3.577 1.266.102 2.475-.16 3.604-.682.413-.188.79-.512 1.222-.836zm.036-3.205c0 .438-.007.87.003 1.304.004.18-.042.3-.192.408-1.275.913-2.664 1.41-4.256 1.175-1.506-.222-2.266-1.768-1.46-3 .392-.598 1.01-.886 1.675-1.06 1.3-.338 2.645-.328 3.97-.458.24-.023.268.092.265.28-.01.45-.004.9-.004 1.352zM251.775 79.063c.115.407-.156.917.148 1.127.254.174.72.045 1.09.045.826 0 .826 0 .826-.84-.002-2.37.01-4.742-.008-7.11-.007-.773-.138-1.526-.604-2.19-.71-1.003-1.737-1.39-2.88-1.558-1.366-.2-2.73-.162-4.095.07-.48.082-.975.02-1.44.226-.157.068-.23.088-.226.272.02.483.023.97.012 1.452-.01.31.095.355.37.254 1.02-.377 2.08-.6 3.166-.68.774-.062 1.545-.013 2.295.215.915.28 1.427 1.027 1.386 1.973-.008.194-.04.288-.265.293-1.09.027-2.195.075-3.27.222-1.6.217-3.206.615-4.283 1.997-.52.667-.555 1.486-.477 2.303.186 1.958 1.724 3.347 3.703 3.416 1.205.04 2.326-.257 3.41-.723.403-.174.687-.57 1.142-.764zm.038-3.318c0 .45-.002.9.002 1.352 0 .164-.01.294-.172.41-1.274.92-2.662 1.41-4.254 1.188-1.35-.188-2.052-1.25-1.676-2.55.263-.902 1.01-1.266 1.812-1.493 1.324-.373 2.705-.347 4.063-.48.22-.02.225.115.225.27-.004.433-.002.87-.002 1.303zM383.36 79.063c.024.08.044.12.05.162.025.317-.14.74.064.93.242.226.676.07 1.024.075.938.013.938.005.938-.957 0-2.273.002-4.548 0-6.82 0-2.3-1.172-3.62-3.46-3.92-1.548-.203-3.087-.156-4.61.174-.305.065-.63-.078-.924.146-.146.11-.227.184-.22.366.013.4.024.806-.003 1.208-.026.39.052.504.468.354.973-.348 1.98-.568 3.01-.65.73-.06 1.453-.01 2.162.154.982.225 1.517.914 1.556 1.888.015.32-.062.43-.406.45-1.286.08-2.573.135-3.847.36-.666.118-1.316.294-1.934.58-1.437.672-2.134 1.788-2.09 3.383.042 1.6.84 2.69 2.27 3.28 1.445.595 2.89.337 4.313-.207.6-.226 1.067-.655 1.638-.957zm.052-3.256c0 .438-.004.87.002 1.306.002.17-.02.302-.18.413-1.28.907-2.672 1.403-4.268 1.166-.896-.134-1.504-.64-1.668-1.39-.21-.974.072-1.698.866-2.224.284-.188.597-.328.92-.416 1.35-.366 2.744-.354 4.12-.49.25-.026.202.145.204.28.007.45.004.902.004 1.355zM321 79.047c.025.096.047.137.05.18.05 1.01.05 1.01 1.095 1.01.935 0 .935 0 .935-.92v-6.725c0-2.418-1.07-3.684-3.458-4.055-1.844-.285-3.66-.067-5.47.307-.218.045-.326.15-.315.396.02.437.023.872.004 1.308-.013.354.124.352.404.255.978-.332 1.978-.564 3.01-.667.87-.085 1.718.03 2.55.255.793.214 1.37 1.208 1.256 2.022-.037.27-.216.186-.354.196-1.314.112-2.64.145-3.94.386-1.022.188-2.012.466-2.827 1.152-1.16.978-1.415 2.246-1.064 3.647.362 1.45 1.367 2.326 2.794 2.632 1.602.342 3.123.028 4.52-.848.26-.168.522-.343.81-.53zm.052-3.245c0 .435-.003.868 0 1.305.003.166-.017.3-.176.41-1.27.89-2.633 1.397-4.212 1.182-1.39-.19-2.127-1.287-1.702-2.607.267-.822.958-1.188 1.716-1.413 1.355-.4 2.77-.37 4.16-.506.232-.022.213.13.213.275 0 .45 0 .9.002 1.352zM215.723 74.645c1.354 0 2.71-.007 4.065.007.287.003.388-.06.384-.372-.014-.947-.02-1.886-.307-2.813-.502-1.627-2.002-2.893-3.713-3.008-.357-.025-.685-.22-1.02-.19-1.98.184-3.812.71-4.966 2.508-1.314 2.04-1.326 4.238-.516 6.43.693 1.877 2.248 2.788 4.15 3.136 1.654.3 3.292.195 4.88-.394.35-.13.747-.05 1.064-.354.13-.126.198-.208.198-.37-.002-.5-.01-1 .002-1.5.01-.312-.08-.324-.325-.168-1.374.868-2.872 1.323-4.502 1.235-1.59-.088-2.87-.724-3.547-2.253-.208-.475-.32-.987-.34-1.52-.01-.302.075-.383.374-.38 1.375.013 2.748.005 4.12.005zm-1.028-1.47c-1.014 0-2.03-.02-3.043.01-.416.012-.452-.144-.365-.477.388-1.483 1.31-2.444 2.83-2.675 2.188-.33 3.84.414 4.056 2.746.034.356-.084.402-.383.4-1.032-.013-2.06-.004-3.095-.004zM268.354 74.34c-.082.893.018 1.953.408 2.883.678 1.608 1.85 2.796 3.655 3.156 1.913.38 3.726.2 5.267-1.132 1.037-.896 1.553-2.075 1.742-3.42.204-1.442.18-2.862-.39-4.223-.782-1.87-2.21-2.86-4.207-3.208-1.09-.188-2.116.002-3.09.296-.868.263-1.594.912-2.196 1.654-.916 1.134-1.18 2.447-1.19 3.993zm9.09-.19c.02.68-.023 1.354-.177 2.015-.398 1.71-1.572 2.692-3.226 2.72-1.75.03-2.957-.884-3.387-2.628-.326-1.32-.316-2.657.093-3.96.467-1.49 1.612-2.272 3.22-2.26 1.59.015 2.698.804 3.18 2.26.2.6.26 1.224.3 1.853zM258.025 69.947c0-.188.002-.277 0-.37-.012-.887-.012-.887-.92-.887-1.115 0-1.115 0-1.115 1.136 0 3.307.007 6.613-.01 9.922-.002.406.115.53.512.495.367-.034.744-.03 1.113-.002.342.03.43-.086.428-.425-.016-2-.008-4-.008-6 0-.483.052-.977-.014-1.45-.085-.616.2-.933.695-1.213.808-.457 1.635-.86 2.56-.95.693-.067 1.405.063 2 .465.55.37.7.982.752 1.605.21 2.464.063 4.935.084 7.4.005.468.114.63.583.566.475-.06 1.112.2 1.387-.102.236-.26.08-.886.08-1.35.004-1.97 0-3.94.002-5.906.002-.71-.063-1.41-.287-2.09-.41-1.23-1.245-1.996-2.512-2.296-.715-.17-1.46-.313-2.155-.12-.9.247-1.793.585-2.565 1.152-.167.127-.342.24-.608.42z"/><path fill="#FFF" d="M372.42 70.298c-.8.965-1.525 1.84-2.255 2.716-1.534 1.842-3.067 3.687-4.606 5.524-.41.487-.18 1.05-.19 1.578-.005.203.266.113.406.113 2.293.005 4.584.004 6.875.004.728 0 1.454-.01 2.18.005.252.005.323-.073.335-.328.05-1.316.06-1.315-1.227-1.315h-5.96c-.046-.21.12-.297.214-.41 2.168-2.6 4.332-5.206 6.52-7.79.42-.5.21-1.043.24-1.566.013-.205-.22-.135-.35-.135-1.098-.006-2.192-.004-3.29-.004-1.792 0-3.583.013-5.374-.008-.363-.004-.46.094-.453.456.018 1.16 0 1.16 1.142 1.16h5.793zM361.857 70.298c-.748.9-1.412 1.704-2.082 2.507-1.56 1.868-3.102 3.75-4.688 5.595-.464.54-.273 1.123-.296 1.696-.008.214.223.135.35.136 1.08.006 2.162.004 3.242.004 1.936 0 3.87-.006 5.807.005.3.004.42-.053.42-.39.004-1.253.018-1.253-1.246-1.253h-5.95c-.04-.216.126-.3.22-.414 2.157-2.59 4.308-5.183 6.486-7.754.433-.51.254-1.06.272-1.603.006-.196-.225-.134-.354-.135-1-.005-2-.003-3-.003-1.872 0-3.743.012-5.614-.013-.414-.006-.507.116-.498.51.025 1.11.008 1.11 1.143 1.11h5.787zM231.57 71.508c0-.607-.02-1.19.008-1.77.016-.3-.117-.422-.367-.53-1.344-.58-2.74-.852-4.208-.774-1.533.077-2.773.713-3.86 1.78-.835.825-1.274 1.833-1.395 2.93-.117 1.094-.083 2.214.18 3.312.317 1.342 1.06 2.405 2.17 3.157.74.498 1.632.723 2.533.82 1.626.177 3.168-.12 4.647-.795.193-.088.31-.182.3-.425-.022-.5-.015-1-.003-1.5.007-.322-.08-.37-.348-.184-.826.573-1.715 1.004-2.72 1.188-2.65.485-4.504-.956-4.66-3.652-.044-.725-.026-1.447.15-2.16.49-1.984 2.094-3.065 4.118-2.786 1.092.148 2.074.564 2.986 1.167.13.084.237.22.47.22zM312.036 71.602c0-.733-.01-1.36.007-1.984.006-.235-.143-.3-.305-.375-1.114-.518-2.284-.78-3.514-.823-.947-.035-1.893.065-2.74.44-.825.364-1.56.93-2.14 1.668-.73.93-1.07 1.956-1.19 3.142-.074.71-.065 1.415.053 2.073.182 1.012.52 2.008 1.216 2.835.687.817 1.546 1.363 2.563 1.635 2.012.535 3.95.265 5.824-.606.147-.07.232-.145.23-.317-.008-.625-.003-1.25-.003-1.972-.583.37-1.095.698-1.642.957-1.59.752-4.258.964-5.457-1.04-.69-1.156-.737-2.428-.592-3.722.115-1.003.445-1.917 1.25-2.585 1.03-.857 2.22-1 3.49-.714.874.198 1.678.553 2.422 1.043.148.092.293.187.528.345zM242.482 77.306c-.584.39-1.08.715-1.62.96-.974.45-1.995.652-3.056.5-1.754-.257-2.854-1.512-3.02-3.434-.074-.828-.08-1.662.125-2.48.556-2.226 2.46-3.133 4.595-2.644.544.123 1.064.282 1.56.648.325.24.82.356 1.208.602.213.133.205-.044.205-.167.006-.596-.012-1.19.008-1.787.007-.185-.113-.22-.213-.26-.6-.244-1.21-.444-1.836-.607-1.268-.33-2.535-.294-3.785.023-2.307.586-3.883 2.62-4.008 5.082-.056 1.08-.066 2.186.3 3.188.632 1.718 1.846 2.897 3.69 3.328 1.94.452 3.797.206 5.586-.648.243-.117.31-.242.277-.54-.06-.55-.015-1.115-.015-1.764zM283.24 73.76c0-.97.02-1.937-.01-2.902-.014-.426.076-.588.547-.57 1.078.04 2.16-.007 3.24.022.375.01.446-.107.442-.458-.018-1.16-.003-1.16-1.14-1.16-.902 0-1.808-.012-2.71.006-.303.007-.383-.096-.377-.387.017-.853.004-1.708.004-2.562 0-.31.02-.566-.465-.413-.322.102-.732.104-1.05-.005-.513-.176-.544.047-.538.44.012.837-.01 1.677.01 2.516.008.312-.078.452-.405.41-.145-.02-.293.018-.436-.008-.492-.083-.654.17-.646.608.024 1.23-.2.994.964.992.434-.002.526.115.527.534.005 2.146-.086 4.29.047 6.434.097 1.548.838 2.56 2.18 2.985.828.267 1.68.265 2.532.14.045-.007.093-.037.138-.034.453.023 1.02.016 1.27-.257.267-.288.067-.862.08-1.312.01-.36-.214-.507-.535-.33-.77.418-1.58.368-2.386.21-.713-.14-1.22-.853-1.238-1.705-.026-1.064-.008-2.13-.008-3.192h-.042zM289.583 74.247c0 1.19-.062 2.39.028 3.572.038.503.338 1.007.67 1.443.618.82 1.508 1.065 2.456 1.163.906.095 1.8-.05 2.69-.203.286-.05.402-.183.37-.48-.025-.272-.004-.55-.005-.824 0-.582-.04-.632-.586-.44-.64.224-1.275.278-1.956.258-.978-.03-1.614-1.002-1.626-1.755-.034-2.128-.02-4.256-.04-6.384 0-.283.13-.307.355-.306 1.146.01 2.29-.008 3.436.013.332.007.434-.076.43-.422-.014-1.194.004-1.194-1.2-1.194-.87 0-1.74-.014-2.61.008-.315.008-.418-.077-.41-.4.02-.853-.003-1.707.016-2.562.003-.295-.085-.405-.386-.382-.54.042-1.234-.22-1.576.108-.302.287-.07.98-.084 1.494-.01.467-.014.936.002 1.4.01.254-.078.366-.332.338-.016-.002-.033-.002-.048 0-.334.024-.862-.147-.96.083-.16.387-.056.883-.062 1.333-.004.21.158.155.273.163 1.124.078 1.124.078 1.124 1.22v2.757c.013-.003.022-.003.033-.003zM299.656 74.443c0-1.758-.016-3.516.012-5.27.007-.422-.124-.524-.512-.49-.385.034-.774.023-1.16 0-.295-.018-.39.076-.383.38.02.82.007 1.644.007 2.466 0 2.725.013 5.448-.013 8.175-.004.467.146.577.568.54.352-.034.713-.034 1.063-.003.35.03.428-.096.426-.43-.018-1.79-.007-3.58-.008-5.37zM390.557 78.908c-.4.988.197 1.158.875 1.313.756.18 1.504.186 2.223-.085.685-.258 1.104-.772 1.096-1.534-.008-.75-.455-1.177-1.147-1.362-.492-.13-.996-.213-1.484-.348-.35-.1-.673-.28-.67-.703 0-.455.325-.62.717-.734.827-.242 1.517.15 2.23.445.395-.806.368-.806-.507-1.068-.914-.275-1.77-.247-2.656.146-.692.31-.98.938-.926 1.5.055.593.53 1.124 1.278 1.227.53.075 1.048.232 1.57.354.41.096.69.307.64.778-.053.457-.377.628-.772.69-.895.146-1.696-.124-2.467-.617zM298.61 64.738c-1.108 0-1.108 0-1.108 1.084 0 .937 0 .943.928.936.432-.005.988.18 1.26-.077.277-.262.078-.825.088-1.255.016-.687.005-.688-.682-.688h-.487zM396.877 75.457c-.11-.386-.063-.785-.61-.73-.558.06-.368.44-.374.712-.018 1.395-.008 2.788-.008 4.185 0 .29-.072.58.414.582.483.004.5-.245.495-.604-.018-.724-.007-1.45-.007-2.174 0-1.353.442-1.773 1.824-1.785.22 0 .575.242.653-.19.067-.356.063-.702-.47-.712-.704-.013-1.297.274-1.918.714zM400.898 76.38c0-1.074-.002-2.147 0-3.22 0-.303.047-.575-.428-.578-.45-.002-.527.178-.525.57.015 2.178.013 4.35 0 6.522-.002.357.068.53.48.532.41.004.483-.165.478-.525-.014-1.097-.005-2.2-.005-3.3z"/><g><path fill="#9CFFFE" d="M.002 88.108c2.866.504 6.48 1.37 9.352 1.85 2.6.436 5.334.9 7.99 1.34-.057-.978-.136-1.907-.16-2.843-.133-5.14-.064-10.3.504-15.412.465-4.188 1.123-8.34 1.988-12.46 1.484-7.057 3.514-13.952 6.12-20.67.805-2.075.247-1.743 2.528-1.44.972.128.983.178.835 1.165-.352 2.336-.53 4.69-.615 7.047-.254 7.088.054 14.147 1.178 21.165 1.528 9.546 4.367 18.634 9.006 27.115.27.497.604.73 1.126.842 5.96 1.257 11.967 2.27 17.95 3.4.418.078 1.407-.14 1.32-.58-.966-4.977-1.728-9.804-.63-14.732 1.635-7.34 5.213-13.61 10.305-19.024 4.06-4.316 8.775-7.762 13.904-10.644.47-.265.837-.586 1.115-1.058.888-1.517 1.81-3.013 2.708-4.522.602-1.013.593-1.018 1.763-.815.068.013.134.033.2.044.84.138.62.102.22.89-.463.91-.82 1.86-.958 2.958.182-.063.448-.08.548-.125 5.66-2.543 11.554-4.293 17.647-5.362 2.737-.48 5.49-.818 8.266-1 3.18-.21 6.36-.415 9.527.146.523.093.798-.04 1.07-.524 4.357-7.79 9.183-15.248 15.155-21.89.747-.83.73-.83-.145-1.535-4.334-3.5-9.076-6.324-14.07-8.73-7.594-3.66-15.525-6.313-23.72-8.18-.585-.133-1.125-.12-1.705.118-4.754 1.938-9.06 4.643-13.097 7.81-5.404 4.237-10.204 9.113-14.678 14.332-5.898 6.88-11.15 13.734-15.85 21.505-.58.96-.57.958-1.63.625-.107-.033-.212-.073-.32-.108-.377-.126 0 0-.443-.278.41-2.83.802-5.66 1.154-8.496.374-3.02.75-6.042 1.027-9.07.35-3.81.646-7.622.872-11.44.36-6.113.555-12.228.53-18.353-.002-.568-.175-.688-.688-.655-2.39.155-4.78.282-7.172.413-3.723.206-7.446.396-11.168.604-3.723.208-7.444.43-11.167.64-2.82.155-5.64.304-8.46.45-.58.03-1.085.168-1.527.603-.614.605-1.303 1.135-1.934 1.724C9.28 11.008 4.107 18.046.617 26.31c-.146.345-.213.732-.617 1.178l.002 60.62z"/></g><g fill="#155E5C"><path d="M68.245 117.303c.993 1.117 1.987 1.99 2.998 2.84 6.85 5.772 14.573 10 23.026 12.92 5.16 1.786 10.46 2.973 15.88 3.623 3.91.47 7.84.603 11.777.51 6.476-.152 12.886-.806 19.235-2.137 7.08-1.483 13.388-4.69 19.463-8.446 4.875-3.01 9.386-6.495 12.875-11.087 3.27-4.304 6.235-8.81 7.626-14.15 1.08-4.14 1.553-8.342 1.262-12.604-.787-11.542-6.085-20.813-14.562-28.415-5.814-5.21-12.576-8.75-20.05-10.95-.508-.148-.587-.392-.586-.852.01-15.87.01-31.74.007-47.608 0-1.082.154-.93-.934-.93C97.783.014 49.305.016.826 0 .186 0 0 .15 0 .812.024 9.22.015 17.63.015 26.04v1.265c.404-.44.47-.82.617-1.16 3.49-8.147 8.663-15.083 15.156-21.066.63-.582 1.32-1.103 1.934-1.7.442-.427.947-.564 1.527-.594 2.82-.145 5.64-.29 8.46-.444 3.722-.205 7.443-.424 11.166-.63 3.722-.203 7.446-.394 11.168-.594 2.39-.13 4.783-.256 7.172-.408.514-.033.687.086.688.646.024 6.036-.17 12.064-.53 18.09-.228 3.764-.522 7.52-.873 11.273-.278 2.985-.652 5.963-1.025 8.94-.352 2.795-.745 5.585-1.154 8.374-.062.432.052.64.43.766.107.035.212.076.32.11 1.058.326 1.05.32 1.63-.626 4.698-7.66 9.966-14.898 15.864-21.68 4.475-5.143 9.274-9.95 14.678-14.125 4.038-3.122 8.343-5.79 13.097-7.698.58-.232 1.12-.247 1.703-.115 8.196 1.84 16.127 4.453 23.72 8.06 4.995 2.373 9.737 5.156 14.07 8.606.876.695.893.695.146 1.514-5.974 6.545-10.8 13.896-15.157 21.573-.27.478-.545.607-1.07.517-3.166-.552-6.345-.35-9.526-.145-2.775.18-5.528.515-8.266.986-6.092 1.054-11.987 2.778-17.646 5.285-.1.044-.206.072-.387.134.138-1.08.548-1.996 1.01-2.894.4-.776.407-.773-.432-.91-.067-.01-.133-.03-.2-.042-1.17-.198-1.16-.193-1.763.805-.898 1.488-1.82 2.964-2.71 4.457-.276.467-.643.783-1.114 1.043-5.13 2.84-9.844 6.236-13.903 10.49-5.092 5.337-8.67 11.52-10.305 18.753-1.098 4.857-1.26 9.745-.294 14.647.086.438.023.52-.396.44-5.983-1.11-11.99-2.11-17.95-3.35-.52-.108-.855-.34-1.127-.83-4.64-8.356-7.478-17.314-9.006-26.723-1.124-6.916-1.433-13.874-1.178-20.86.083-2.322.262-4.643.613-6.945.148-.973.137-1.02-.835-1.148-2.28-.298-1.723-.626-2.53 1.42-2.603 6.62-4.634 13.418-6.118 20.373-.865 4.06-1.522 8.153-1.988 12.28-.568 5.04-.772 10.09-.64 15.152.025.922.104 1.84.16 2.804-2.654-.436-5.254-.855-7.854-1.285-2.87-.473-5.743-.936-8.61-1.432-.6-.105-.758.04-.756.664.022 7.234.023 14.47 0 21.7-.002.605.152.74.747.74 22.09-.018 44.182-.015 66.274-.022.25 0 .61.156.732-.122.11-.242-.16-.49-.304-.716-2.82-4.367-4.708-9.095-5.427-14.25-.88-6.328.013-12.43 2.602-18.267 2.574-5.808 6.435-10.65 11.244-14.753 7.662-6.53 16.56-10.547 26.314-12.755 7.757-1.757 15.6-2.195 23.517-1.4 9.283.93 18.075 3.464 26.232 8.037 6.985 3.915 12.92 9.007 17.296 15.788 3.024 4.685 4.94 9.788 5.49 15.348.797 8.013-1.167 15.37-5.498 22.112-7.195 11.206-17.408 18.253-30.17 21.737-7.88 2.152-15.91 2.767-24.047 2.21-6.75-.46-13.316-1.776-19.754-3.862-7.8-2.526-14.708-6.53-20.738-12.067-.173-.156-.342-.27-.592-.27-1.832.01-3.663.007-5.675.007z"/><path d="M131.848 77.313c0-8.204-.007-16.41.014-24.612.002-.706-.15-.98-.926-1.1-6.984-1.054-13.984-1.347-21.02-.636-3.49.353-6.93.956-10.31 1.916-.64.182-.884.422-.884 1.134.024 16.025.024 32.048.004 48.073 0 .625.184.73.758.73 10.535-.018 21.07-.02 31.605 0 .605.002.748-.164.747-.756-.02-8.25-.014-16.498-.014-24.748h.025zM95.065 54.1C85.012 58.217 76.13 63.84 69.82 72.913c-1.15 1.652-2.12 3.41-2.928 5.258-2.27 5.2-2.727 10.636-2.1 16.206.31 2.75.983 5.41 2.042 7.975.186.454.423.59.9.585 3.594-.02 7.19-.02 10.784.002.47.004.666-.14.81-.577 3.99-12.128 7.992-24.25 11.988-36.373 1.49-4.524 2.7-8.233 3.642-11.123.07-.21.202-.41.107-.764z"/></g><g fill="#FFF"><path d="M199.578 92.212h2.006v7.993h-2.006v-.845c-.39.372-.784.64-1.178.805-.394.164-.82.246-1.28.246-1.032 0-1.925-.4-2.68-1.2s-1.13-1.797-1.13-2.986c0-1.234.365-2.246 1.094-3.034.73-.79 1.614-1.184 2.657-1.184.48 0 .93.09 1.35.272.422.18.81.453 1.168.815v-.88zm-2.11 1.646c-.62 0-1.134.22-1.544.657-.41.438-.615 1-.615 1.687 0 .69.207 1.26.624 1.704.417.446.93.67 1.542.67.63 0 1.152-.22 1.567-.658s.623-1.013.623-1.724c0-.695-.208-1.258-.623-1.69-.415-.43-.94-.646-1.574-.646zM207.584 92.212h2.006v.918c.342-.377.724-.658 1.143-.845.42-.186.876-.28 1.37-.28.5 0 .952.124 1.355.37.4.243.725.6.97 1.07.318-.47.71-.827 1.173-1.07.464-.246.97-.37 1.52-.37.567 0 1.067.134 1.5.398.43.264.74.61.93 1.035.188.427.282 1.12.282 2.08v4.687h-2.02V96.15c0-.905-.113-1.52-.338-1.84-.226-.32-.564-.48-1.014-.48-.344 0-.65.097-.923.293-.27.196-.474.467-.606.812-.13.346-.196.9-.196 1.664v3.606h-2.02v-3.872c0-.715-.054-1.232-.16-1.554-.104-.32-.263-.56-.474-.716-.21-.157-.467-.235-.766-.235-.334 0-.637.1-.91.297-.27.198-.476.477-.61.834-.136.358-.202.922-.202 1.69v3.556h-2.006v-7.994zM227.72 89.126v3.968c.36-.362.753-.635 1.175-.815.42-.183.87-.273 1.352-.273 1.043 0 1.93.395 2.66 1.184.728.79 1.094 1.8 1.094 3.035 0 1.19-.376 2.186-1.13 2.986-.755.802-1.648 1.202-2.682 1.202-.46 0-.89-.082-1.286-.246-.396-.164-.79-.433-1.183-.805v.846h-1.992v-11.08h1.99zm2.107 4.732c-.632 0-1.155.216-1.572.646-.417.432-.624.994-.624 1.69 0 .71.208 1.284.625 1.723s.94.657 1.572.657c.612 0 1.128-.223 1.546-.67.42-.444.63-1.013.63-1.703 0-.685-.207-1.247-.618-1.686-.412-.437-.93-.656-1.558-.656zM240.43 88.92c.352 0 .653.128.904.383.252.255.378.563.378.926 0 .356-.124.66-.374.913-.248.253-.547.38-.893.38-.357 0-.66-.13-.912-.387s-.378-.57-.378-.937c0-.354.124-.655.374-.905.247-.25.548-.374.9-.374zm-1.002 3.292h2.005v7.993h-2.005v-7.993zM255.25 96.79h-6.443c.094.567.342 1.02.746 1.354.404.335.92.503 1.546.503.748 0 1.393-.262 1.932-.786l1.69.795c-.423.598-.927 1.04-1.515 1.326-.588.287-1.285.43-2.094.43-1.254 0-2.275-.395-3.063-1.186s-1.183-1.782-1.183-2.972c0-1.22.393-2.232 1.18-3.038.785-.806 1.77-1.21 2.957-1.21 1.258 0 2.28.404 3.07 1.21s1.183 1.87 1.183 3.192l-.007.383zm-2.006-1.58c-.133-.446-.395-.81-.783-1.088-.39-.28-.843-.42-1.357-.42-.56 0-1.05.158-1.472.472-.265.195-.51.54-.735 1.035h4.35zM260.86 92.212h2.006v.82c.454-.385.866-.65 1.235-.8.37-.15.75-.227 1.136-.227.79 0 1.464.277 2.017.83.465.47.697 1.166.697 2.087v5.282h-1.983v-3.5c0-.954-.043-1.588-.13-1.9-.085-.313-.233-.552-.446-.716s-.474-.246-.786-.246c-.406 0-.754.136-1.045.407s-.493.646-.605 1.126c-.06.25-.088.79-.088 1.62v3.208h-2.006v-7.992zM274.12 89.266h2.005v2.946h1.19v1.727h-1.19v6.266h-2.006V93.94h-1.03V92.21h1.03v-2.946zM283.157 88.92c.352 0 .653.128.904.383.253.255.38.563.38.926 0 .356-.126.66-.375.913-.25.253-.547.38-.894.38-.355 0-.66-.13-.91-.387s-.378-.57-.378-.937c0-.354.124-.655.373-.905.25-.25.55-.374.902-.374zm-1.003 3.292h2.006v7.993h-2.006v-7.993zM310.117 92.006c.754 0 1.463.19 2.127.566.663.377 1.18.89 1.553 1.535.373.646.56 1.345.56 2.094 0 .755-.19 1.46-.564 2.117-.374.656-.885 1.17-1.53 1.54-.647.368-1.36.554-2.14.554-1.145 0-2.123-.407-2.934-1.223s-1.218-1.806-1.218-2.972c0-1.25.46-2.29 1.374-3.122.804-.724 1.727-1.087 2.77-1.087zm.032 1.89c-.624 0-1.143.216-1.557.65-.415.432-.623.986-.623 1.663 0 .694.205 1.258.615 1.688s.928.646 1.557.646c.627 0 1.15-.218 1.567-.654.416-.436.625-.996.625-1.682 0-.687-.205-1.243-.615-1.672s-.933-.64-1.57-.64zM319.025 92.212h.713c.006-1.048.022-1.668.052-1.858.054-.44.24-.79.555-1.047.315-.258.763-.386 1.34-.386.417 0 .888.097 1.41.287v1.528c-.288-.083-.525-.125-.712-.125-.234 0-.406.05-.514.146-.08.074-.118.226-.118.456l-.008 1h1.27v1.696h-1.27v6.296h-2.006v-6.296h-.713v-1.696zM328.42 89.266h2.006v2.946h1.19v1.727h-1.19v6.266h-2.006V93.94h-1.028V92.21h1.028v-2.946zM342.575 92.212h2.006v7.993h-2.005v-.845c-.392.372-.784.64-1.178.805s-.82.246-1.28.246c-1.032 0-1.926-.4-2.68-1.2s-1.13-1.797-1.13-2.986c0-1.234.365-2.246 1.095-3.034.73-.79 1.613-1.184 2.656-1.184.48 0 .93.09 1.35.272.42.18.81.453 1.167.815v-.88zm-2.108 1.646c-.62 0-1.135.22-1.545.657-.41.438-.615 1-.615 1.687 0 .69.21 1.26.626 1.704.417.446.93.67 1.542.67.63 0 1.15-.22 1.566-.658s.624-1.013.624-1.724c0-.695-.208-1.258-.623-1.69-.414-.43-.938-.646-1.573-.646zM350.375 89.126h2.006v11.08h-2.005v-11.08zM358.176 92.212h2.006v.918c.342-.377.724-.658 1.143-.845.42-.186.876-.28 1.37-.28.5 0 .952.124 1.355.37.4.243.725.6.97 1.07.318-.47.71-.827 1.173-1.07.463-.246.97-.37 1.518-.37.57 0 1.07.134 1.5.398.433.264.743.61.93 1.035.19.427.284 1.12.284 2.08v4.687h-2.02V96.15c0-.905-.113-1.52-.338-1.84-.226-.32-.564-.48-1.014-.48-.344 0-.65.097-.923.293-.272.196-.475.467-.607.812-.132.346-.197.9-.197 1.664v3.606h-2.02v-3.872c0-.715-.054-1.232-.16-1.554-.104-.32-.263-.56-.474-.716-.21-.157-.467-.235-.766-.235-.334 0-.637.1-.91.297-.27.198-.476.477-.61.834-.136.358-.202.922-.202 1.69v3.556h-2.006v-7.994zM377.102 88.92c.352 0 .653.128.904.383.252.255.378.563.378.926 0 .356-.124.66-.374.913-.248.253-.547.38-.893.38-.357 0-.66-.13-.912-.387s-.378-.57-.378-.937c0-.354.124-.655.374-.905s.55-.374.902-.374zm-1.002 3.292h2.005v7.993H376.1v-7.993zM391.738 93.828l-1.67.918c-.314-.327-.624-.556-.93-.683-.308-.128-.666-.19-1.078-.19-.75 0-1.357.223-1.82.67-.464.448-.695 1.022-.695 1.72 0 .68.223 1.235.67 1.666s1.03.645 1.758.645c.896 0 1.596-.306 2.096-.918l1.58 1.082c-.856 1.114-2.066 1.672-3.63 1.672-1.404 0-2.506-.417-3.3-1.25-.798-.832-1.195-1.807-1.195-2.923 0-.775.193-1.487.58-2.14.388-.65.927-1.163 1.62-1.535s1.47-.56 2.325-.56c.794 0 1.507.16 2.138.476.63.316 1.148.765 1.55 1.348zM398.314 88.92c.352 0 .653.128.904.383.252.255.378.563.378.926 0 .356-.124.66-.374.913-.248.253-.547.38-.893.38-.358 0-.662-.13-.913-.387-.252-.257-.378-.57-.378-.937 0-.354.123-.655.373-.905s.55-.374.9-.374zm-1 3.292h2.004v7.993h-2.005v-7.993z"/></g></svg>